<svg xmlns="http://www.w3.org/2000/svg" viewBox="0 0 254 90" class="design-iconfont">
  <g transform="translate(1 1)" fill="none" fill-rule="evenodd">
    <rect stroke="#DCDEE5" fill="#FFF" width="252" height="88" rx="2"/>
    <path fill="#2C2599" d="M24 0A24 24 0 1 0 24 48A24 24 0 1 0 24 0Z" transform="translate(102 20)"/>
    <path d="M24.3477996,24 L45.0000513,36.6863794 C40.7042715,43.4797827 33.0610497,48 24.3477996,48 C21.414886,48 18.6032089,47.4878496 15.9996242,46.549246 L24.3477996,24 Z" fill="#3762B8" transform="translate(102 20)"/>
    <path d="M47.483143,19.0003713 C47.8218541,20.5967914 48,22.2520509 48,23.9486731 C48,29.2020161 46.2920428,34.0587983 43.3980263,38.0002016 L24,23.9486731 Z" fill="#3E96C2" transform="translate(102 20)"/>
    <path d="M39.2469942,5.00044027 C43.7397923,8.59488804 46.9302882,13.7431786 47.9999256,19.6285319 L24,24 Z" fill="#61B2C2" transform="translate(102 20)"/>
    <path d="M24,0 C30.1318921,0 35.7318337,2.25570695 40.000028,5.97499499 L24,24 Z" fill="#85CCA8" transform="translate(102 20)"/>
    <path d="M23.5055713,0 C23.6707172,0 23.8354668,0.00172586875 23.9998036,0.00516084209 L23.5055713,24 L15.0003703,1.60663835 C17.6390153,0.568997531 20.5069683,0 23.5055713,0 Z" fill="#B5E0AB" transform="translate(102 20)"/>
    <path stroke="#FFF" d="M20 1L24 24" transform="translate(102 20)"/>
    <path d="M19.6307866,0.310001244 L24,24 L15.3531394,1.41541407 C16.7270099,0.921272453 18.1570201,0.548589492 19.6307866,0.310001244 Z" fill="#FFF4AD" transform="translate(102 20)"/>
    <path stroke="#FFF" d="M15 1L24 23.5131369 15.4320171 46" transform="translate(102 20)"/>
    <path stroke="#FFF" d="M24.5775553 0L24 24 40 6.01900152" transform="translate(102 20)"/>
    <path stroke="#FFF" d="M48 19L24 23.4008944 43.6256478 38" transform="translate(102 20)"/>
    <g>
      <path fill="#3E96C2" d="M17 6H30V13H17z" transform="translate(174 23)"/>
      <path fill="#85CCA8" d="M0 0H13V7H0z" transform="translate(174 23)"/>
      <path fill="#3762B8" d="M1 21H14V28H1z" transform="translate(174 23)"/>
      <path fill="#3762B8" d="M47 16H60V23H47z" transform="translate(174 23)"/>
      <path fill="#61B2C2" d="M37 25H50V32H37z" transform="translate(174 23)"/>
      <path fill="#61B2C2" d="M29 35H42V42H29z" transform="translate(174 23)"/>
      <path fill="#3E96C2" d="M10 29H23V36H10z" transform="translate(174 23)"/>
      <path fill="#2C2599" d="M18 16H39V27H18z" transform="translate(174 23)"/>
      <path fill="#3762B8" d="M34 1H47V8H34z" transform="translate(174 23)"/>
    </g>
    <g>
      <path fill="#2C2599" d="M0.5 27.4319572H12.5V53.7969207H0.5z" transform="translate(17 17)"/>
      <path fill="#3E96C2" d="M16.5 35.0961908H28.5V53.7969207H16.5z" transform="translate(17 17)"/>
      <path fill="#85CCA8" d="M32.5 11.7969207H44.5V53.7969207H32.5z" transform="translate(17 17)"/>
      <path fill="#D2E6B8" d="M48.5 22.5268477H60.5V53.7969207H48.5z" transform="translate(17 17)"/>
      <path stroke="#FEA56B" stroke-linecap="square" d="M0 25.2969207L13.5 32.7969207 32.5 14.8984604 38.5 18.2969207 60.5 0" transform="translate(17 17)"/>
    </g>
  </g>
</svg>
