<svg xmlns="http://www.w3.org/2000/svg" viewBox="0 0 20 20" class="design-iconfont">
  <g fill="none" fill-rule="evenodd">
    <path fill="#6FE0B8" d="M10 0A10 10 0 1 0 10 20A10 10 0 1 0 10 0Z"/>
    <path d="M3.61328125,1.74560547 L7.59887695,1.74560547 L7.55615234,0.0122070312 L9.16748047,0.0122070312 L9.21630859,1.74560547 L10.3210449,1.74560547 L9.59472656,0.756835938 L10.7299805,0.0732421875 C11.1450195,0.553385417 11.4705404,0.948079427 11.706543,1.25732422 L10.9008789,1.74560547 L12.0849609,1.74560547 L12.0849609,3.28369141 L9.27124023,3.28369141 C9.32820638,4.71191406 9.38924154,5.86751302 9.4543457,6.75048828 C9.8815918,5.87972005 10.1969401,4.9601237 10.4003906,3.99169922 L11.7675781,4.37011719 C11.340332,6.03841146 10.6770833,7.56835938 9.77783203,8.95996094 C10.0260417,9.83072917 10.2661133,10.2661133 10.4980469,10.2661133 C10.6852214,10.2661133 10.7869466,9.6110026 10.8032227,8.30078125 C11.3728841,8.47167969 11.8123372,8.58968099 12.121582,8.65478516 C12.121582,10.9090169 11.5885417,12.0361328 10.5224609,12.0361328 C9.71679688,12.0361328 9.08610026,11.5275065 8.63037109,10.5102539 C8.20719401,11.0148112 7.74739583,11.4990234 7.25097656,11.9628906 C6.98242188,11.6129557 6.65283203,11.2304688 6.26220703,10.8154297 C6.26627604,10.8072917 6.27237956,10.8011882 6.28051758,10.7971191 L3.47900391,11.2060547 L3.38134766,10.4309082 C2.2257487,10.5977376 1.11490885,10.7788086 0.048828125,10.9741211 L0,9.33837891 L0.952148438,9.22851562 L0.952148438,4.73632812 L0.09765625,4.73632812 L0.09765625,3.19824219 L0.952148438,3.19824219 L0.952148438,0 L2.55126953,0 L2.55126953,3.19824219 L3.23486328,3.19824219 L3.23486328,4.73632812 L2.55126953,4.73632812 L2.55126953,9.00878906 L3.43017578,8.87451172 C3.41389974,9.00472005 3.40779622,9.23868815 3.41186523,9.57641602 C4.85636393,9.43806966 6.1726888,9.29361979 7.36083984,9.14306641 L7.39746094,9.71679688 C7.6578776,9.44010417 7.90405273,9.15527344 8.13598633,8.86230469 C7.92032878,7.6944987 7.75960286,5.83496094 7.65380859,3.28369141 L3.61328125,3.28369141 L3.61328125,1.74560547 Z M3.63769531,4.30908203 L7.12890625,4.30908203 L7.12890625,8.54492188 L3.63769531,8.54492188 L3.63769531,4.30908203 Z M5.83496094,5.45654297 L4.93164062,5.45654297 L4.93164062,7.39746094 L5.83496094,7.39746094 L5.83496094,5.45654297 Z" transform="translate(3.9209 3.9807)" fill="#FFF" fill-rule="nonzero"/>
  </g>
</svg>
