<svg xmlns="http://www.w3.org/2000/svg" viewBox="0 0 20 21" class="design-iconfont">
  <g fill-rule="nonzero" fill="none">
    <path fill="#A3C5FD" d="M10 0.625A10 10 0 1 0 10 20.625A10 10 0 1 0 10 0.625Z" transform="translate(0 .375)"/>
    <path d="M6.84814453,0 L8.59375,0.268554688 C8.50016276,0.691731771 8.39640299,1.10677083 8.2824707,1.51367188 L11.9506836,1.51367188 L11.9506836,3.07617188 L7.75146484,3.07617188 C7.39339193,3.98763021 6.96207682,4.85839844 6.45751953,5.68847656 C6.07503255,5.43619792 5.65185547,5.19205729 5.18798828,4.95605469 L5.18798828,6.42089844 L3.47900391,6.42089844 L3.47900391,0.0610351562 L5.18798828,0.0610351562 L5.18798828,4.39453125 C6.00585938,3.02734375 6.55924479,1.5625 6.84814453,0 Z M0.87890625,0.5859375 L2.56347656,0.5859375 L2.56347656,5.95703125 L0.87890625,5.95703125 L0.87890625,0.5859375 Z M8.70361328,3.29589844 C9.72900391,4.0608724 10.534668,4.71191406 11.1206055,5.24902344 L9.89990234,6.53076172 C9.2569987,5.89599609 8.49202474,5.22460938 7.60498047,4.51660156 L8.70361328,3.29589844 Z M0,10.15625 L1.22070312,10.15625 L1.22070312,6.59179688 L10.9130859,6.59179688 L10.9130859,10.15625 L12.1337891,10.15625 L12.1337891,11.6821289 L0,11.6821289 L0,10.15625 Z M9.19189453,8.08105469 L8.16650391,8.08105469 L8.16650391,10.15625 L9.19189453,10.15625 L9.19189453,8.08105469 Z M2.94189453,10.15625 L3.96728516,10.15625 L3.96728516,8.08105469 L2.94189453,8.08105469 L2.94189453,10.15625 Z M5.55419922,10.15625 L6.57958984,10.15625 L6.57958984,8.08105469 L5.55419922,8.08105469 L5.55419922,10.15625 Z" transform="translate(3.9331 4.9197)" fill="#FFF"/>
  </g>
</svg>
