<svg xmlns="http://www.w3.org/2000/svg" viewBox="0 0 20 20" class="design-iconfont">
  <g fill="none" fill-rule="evenodd">
    <path fill="#C4C6CC" d="M10 0A10 10 0 1 0 10 20A10 10 0 1 0 10 0Z"/>
    <path d="M1.45263672,9.03320312 L1.45263672,4.90112305 L1.29394531,5.02929688 C0.944010417,4.59798177 0.524902344,4.1422526 0.0366210938,3.66210938 C1.56656901,2.55533854 2.88085938,1.33463542 3.97949219,0 L6.00585938,0 C5.80647786,0.301106771 5.59285482,0.598144531 5.36499023,0.891113281 L9.58251953,0.891113281 L9.58251953,2.23388672 L8.06884766,3.58886719 L10.8886719,3.58886719 L10.8886719,8.984375 L9.20410156,8.984375 L9.20410156,5.05371094 L3.125,5.05371094 L3.125,9.03320312 L1.45263672,9.03320312 Z M2.93579102,3.58886719 L5.83496094,3.58886719 L7.25097656,2.30712891 L4.19311523,2.30712891 C3.79842122,2.73844401 3.37931315,3.1656901 2.93579102,3.58886719 Z M5.34667969,5.56640625 L7.05566406,5.56640625 C7.06787109,6.57552083 6.95597331,7.44628906 6.7199707,8.17871094 C8.87654622,8.98844401 10.6852214,9.73307292 12.1459961,10.4125977 L11.1328125,12.097168 C9.51334635,11.1735026 7.81860352,10.3068034 6.04858398,9.49707031 C5.08422852,10.7340495 3.45865885,11.6088867 1.171875,12.121582 C0.854492188,11.5600586 0.463867188,10.9903971 0,10.4125977 C1.38753255,10.1928711 2.49125163,9.89074707 3.31115723,9.50622559 C4.13106283,9.1217041 4.67834473,8.64156087 4.95300293,8.0657959 C5.22766113,7.49003092 5.35888672,6.65690104 5.34667969,5.56640625 Z" transform="translate(3.9087 3.9685)" fill="#FFF" fill-rule="nonzero"/>
  </g>
</svg>
