<svg viewBox="0 0 1024 1024" version="1.1" xmlns="http://www.w3.org/2000/svg" style="fill: #979BA5;"><path fill-rule="evenodd" d="M558.08 51.2L558.08 100.04480000000001C750.4941107200001 121.64103270400001 902.35896832 273.505888256 923.9552 465.92L972.8000000000001 465.92 972.8000000000001 558.08 923.9552 558.08C902.35896832 750.4941107200001 750.4941107200001 902.35896832 558.08 923.9552L558.08 972.8000000000001 465.92 972.8000000000001 465.92 923.9552C273.505888256 902.35896832 121.64103270400001 750.4941107200001 100.04480000000001 558.08L51.2 558.08 51.2 465.92 100.04480000000001 465.92C121.64103270400001 273.505888256 273.505888256 121.64103270400001 465.92 100.04480000000001L465.92 51.2 558.08 51.2ZM512 189.44000000000003C333.85503129600005 189.44000000000003 189.44000000000003 333.85503129600005 189.44000000000003 512 189.44000000000003 690.14496768 333.85503129600005 834.5600000000001 512 834.5600000000001 690.14496768 834.5600000000001 834.5600000000001 690.14496768 834.5600000000001 512 834.5600000000001 333.85503129600005 690.14496768 189.44000000000003 512 189.44000000000003ZM512 419.84C562.8985625600001 419.84 604.1600000000001 461.10143744 604.1600000000001 512 604.1600000000001 562.8985625600001 562.8985625600001 604.1600000000001 512 604.1600000000001 461.10143744 604.1600000000001 419.84 562.8985625600001 419.84 512 419.84 461.10143744 461.10143744 419.84 512 419.84Z"></path></svg>