<svg xmlns="http://www.w3.org/2000/svg" viewBox="0 0 24 24" class="design-iconfont">
  <path d="M8.7141245,20.3066124 C9.07346697,20.4267662 8.83474295,20.3066124 8.7141245,20.4743271 C8.76438219,20.4743271 8.83474295,20.5694488 8.95284852,20.5243912 C8.94636201,20.4638149 8.93273288,20.4167784 8.97546448,20.3316444 C9.02320928,20.3792053 9.14382773,20.3792053 9.26193329,20.3316444 C9.26193329,20.4017341 9.26193329,20.449295 9.30967809,20.449295 C9.3574229,20.449295 9.30967809,20.3792053 9.30967809,20.3316444 C9.35993578,20.3316444 9.47804135,20.4017341 9.47804135,20.449295 C9.67404633,20.4017341 9.87758996,20.4017341 10.0735949,20.449295 C10.0258501,20.5694488 10.0258501,20.521888 10.0735949,20.6170097 L10.0651946,20.5973613 C10.1786165,20.6193356 10.0717038,20.7570367 10.039939,20.6605512 C10.0408687,20.7785908 10.0392522,21 9.99318264,21 L9.99318264,20.8322853 C9.94795072,20.9974968 9.63635306,20.9499359 9.40014193,20.9499359 C9.44788673,20.8998718 9.44788673,20.8297821 9.5659923,20.7822212 L9.5659923,20.8998718 C9.68661075,20.6645706 9.30465233,20.7822212 9.13880196,20.7822212 C9.0684412,20.8998718 9.23429156,20.7822212 9.18654676,20.8998718 C9.02069639,20.9499359 9.02069639,20.8297821 8.90259083,20.7822212 C8.97546448,20.7596924 8.97546448,20.6645706 8.95033563,20.54692 C8.95033563,20.5407496 8.95017223,20.5347601 8.94990253,20.5289068 C8.90510371,20.594576 8.90510371,20.6450431 8.90510371,20.7596924 C8.7141245,20.8297821 8.7141245,20.6645706 8.54827414,20.7121315 C8.49801645,20.7121315 8.6663797,20.6645706 8.6663797,20.6645706 C8.6663797,20.5444168 8.7141245,20.4743271 8.7141245,20.3066124 Z M21.9293833,11.0622785 C22.5500657,11.1098394 23.0250009,10.6117017 23.4773201,10.8019452 C23.4920833,10.7960001 23.5057863,10.7874736 23.5181348,10.7770109 L23.527,10.767 L24,11.1974515 C22.9005164,11.4816615 22.8159408,11.5845743 21.9101495,11.8408924 L21.6655304,11.9083616 L20.9267424,11.9083616 L20.9267424,11.8858327 C20.7608921,11.8858327 20.7608921,11.9333936 20.6176577,11.9333936 C20.6679154,11.840775 20.4995521,11.8883359 20.4995521,11.7932142 C20.4291913,11.8182462 20.4291913,11.9609289 20.5498098,11.9108648 C20.5101569,11.9283183 20.470356,11.9455611 20.4303624,11.9625218 L20.8789976,12.0735731 C20.7583792,12.3589384 20.7583792,12.7869863 20.7106344,13.1424413 C20.7106344,13.2125311 20.5925288,13.2600919 20.5925288,13.2600919 C20.544784,13.4503355 20.544784,13.6380758 20.544784,13.8057905 C20.544784,13.8478443 20.502266,13.8817878 20.4682516,13.9022139 L20.4266785,13.9234411 L20.4266785,14.0911558 C20.4266785,14.1387167 20.3085729,14.1387167 20.3085729,14.1387167 L20.3085729,14.3039282 C20.3085729,14.3740179 20.1904673,14.3740179 20.1904673,14.4215788 C20.1427225,14.4916685 20.1904673,14.6093191 20.1904673,14.6593832 C20.1904673,14.7044409 20.1201066,14.7044409 20.0748746,14.7044409 C20.024617,14.8220915 19.9542562,15.0824248 19.9065114,15.2501395 L19.740661,15.4178542 L19.740661,15.5355048 C19.740661,15.5830656 19.6225555,15.5355048 19.6225555,15.5830656 C19.5521947,15.7032195 19.5521947,15.8208701 19.5044499,15.9385207 C19.4340891,15.9885848 19.3134707,16.0586745 19.2657259,16.1062354 C19.2179811,16.1763251 19.2657259,16.2964789 19.2179811,16.3440398 C19.1677234,16.4141295 19.0973626,16.4141295 19.0496178,16.4641936 C18.9289994,16.6519339 18.8586386,16.8897383 18.6902754,16.9372992 L18.6902754,16.8196486 C18.6199146,16.8196486 18.6199146,16.8672095 18.5721698,16.8672095 C18.5721698,16.9147704 18.6425306,16.8672095 18.6902754,16.8672095 C18.4038066,17.4154113 17.8585107,17.7233054 17.4991682,18.1964111 C17.4036786,18.2464751 17.4991682,18.0787604 17.4514234,18.0787604 C17.4036786,18.0787604 17.4514234,18.1989143 17.4514234,18.2464751 C17.3333178,18.3165649 17.4514234,18.1513534 17.3333178,18.1989143 C17.2629571,18.3165649 17.4288074,18.1989143 17.3810626,18.3165649 C17.024233,18.526834 16.7377642,18.8597602 16.3105739,19.0274749 C16.2628291,19.0274749 16.2628291,18.9573852 16.2628291,18.9098243 C16.2150843,18.9598884 16.2628291,19.0299781 16.2628291,19.077539 C16.1698524,19.1250999 16.0718499,19.1726608 16.0014891,19.2202217 C15.9763603,19.2427505 15.9537443,19.2677825 15.9059995,19.2677825 C15.8708191,19.272789 15.8381516,19.2903114 15.8105099,19.3153434 C15.8105099,19.3403755 15.7878939,19.4104652 15.7878939,19.4580261 L15.6195307,19.4580261 L15.6195307,19.432994 C15.4285515,19.5281158 15.2375723,19.6482696 15.0239771,19.7433914 L15.0239771,19.8134811 C14.9787452,19.8585388 14.9310004,19.8360099 14.9058715,19.7884491 C14.7400212,19.8835708 14.526426,19.9536606 14.3128308,20.0237503 C14.3128308,20.0237503 14.287702,20.0237503 14.287702,20.0487823 C14.265086,20.0738144 14.2399572,20.0487823 14.2399572,20.0237503 C14.1444676,20.0487823 14.0741068,20.0738144 13.9786172,20.0963432 C13.9560013,20.1213752 13.9560013,20.1213752 13.9308724,20.1213752 L13.9308724,20.0763176 L13.8579988,20.0763176 C13.8579988,20.087582 13.8639669,20.0975948 13.872919,20.1070209 L13.9385681,20.1618568 L13.9534884,20.1939682 C13.8328699,20.1939682 13.6444036,20.314122 13.5966588,20.1464073 C13.548914,20.1464073 13.5966588,20.2665611 13.5966588,20.314122 C13.4056796,20.314122 13.3579348,20.3842117 13.2398292,20.4317726 C13.1920844,20.4317726 13.1920844,20.3616829 13.1920844,20.314122 C13.071466,20.314122 13.071466,20.4317726 12.9533604,20.4317726 C12.9533604,20.3842117 12.9533604,20.3842117 12.9056156,20.3842117 C12.8603837,20.5043655 12.5990437,20.5043655 12.4306805,20.5519264 C12.4306805,20.4818367 12.5261701,20.4818367 12.4784253,20.4342758 C12.4306805,20.4793335 12.3728841,20.5118751 12.310062,20.5293976 L12.310062,20.6720802 L12.1919564,20.6720802 C12.1919564,20.6019905 12.2145724,20.5794617 12.2397012,20.5544296 C12.048722,20.6245193 11.7873821,20.6245193 11.5964029,20.6720802 C11.4305525,20.5994873 11.2169573,20.6470482 10.9556173,20.6720802 L11.0008493,20.6720802 C11.0008493,20.7421699 10.9531045,20.7421699 11.0008493,20.7897308 C11.0008493,20.9073814 11.0008493,20.7421699 10.9531045,20.7897308 L10.9531045,20.6720802 C10.9053597,20.6720802 10.8802308,20.6971123 10.832486,20.6971123 C10.832486,20.7446731 10.6691485,20.7446731 10.6214037,20.8397949 C10.5736589,20.8397949 10.5736589,20.7697052 10.5736589,20.7221443 C10.616378,20.7196411 10.659097,20.7046219 10.6917645,20.6745834 L10.4027828,20.6745834 C10.5208884,20.5569328 10.4505276,20.436779 10.4027828,20.3892181 C10.5208884,20.3191284 10.4731435,20.436779 10.5208884,20.436779 C10.5686332,20.436779 10.5686332,20.3191284 10.5686332,20.3191284 C10.5686332,20.2490387 10.4002699,20.2490387 10.4002699,20.2014778 L10.6892516,20.2014778 C10.7596124,20.3191284 10.593762,20.3191284 10.6415068,20.436779 C10.7118676,20.5068687 10.7118676,20.2215034 10.7596124,20.3892181 C10.8073572,20.3892181 10.7596124,20.2690643 10.7596124,20.2215034 C10.8073572,20.2215034 11.0460812,20.2915932 11.0460812,20.1739425 C11.1164419,20.2915932 11.1666996,20.1263817 11.2848052,20.1739425 L11.2848052,20.4593078 C11.1666996,20.5093719 11.2848052,20.2940964 11.1666996,20.3416572 C11.1189548,20.3416572 11.1666996,20.411747 11.1666996,20.4593078 C11.4054236,20.5769585 11.355166,20.2915932 11.5235292,20.2915932 C11.5235292,20.3616829 11.4280396,20.3616829 11.4757844,20.4092438 C11.4757844,20.4793335 11.6416348,20.4092438 11.59389,20.5268944 C11.6918925,20.5969841 11.6416348,20.5043655 11.6667636,20.4793335 L11.6416348,20.4793335 C11.59389,20.314122 11.7597403,20.314122 11.6416348,20.1964714 C11.7597403,20.1964714 12.071338,20.0788208 12.1894436,20.1964714 C12.3075491,20.0287567 12.7347395,20.1464073 12.9031027,20.0287567 C13.0212083,19.958667 12.9031027,20.1238785 13.0212083,20.0788208 C13.0212083,20.1238785 13.0212083,20.1238785 12.9734635,20.1238785 C13.0237212,20.1714393 13.0940819,20.1238785 13.1418267,20.1238785 C13.1418267,20.0037246 13.0463371,20.0788208 13.091569,19.9561638 C13.4509115,19.886074 13.8781018,19.8159843 14.1168259,19.6482696 C14.1645707,19.6482696 14.1645707,19.6958305 14.1645707,19.6958305 C14.2374443,19.5756767 14.5465291,19.4805549 14.5942739,19.5281158 C15.1420827,19.1501319 15.7376363,18.9123275 16.3331899,18.5568725 L16.3331899,18.4392219 C16.4261666,18.4392219 16.4990402,18.3415969 16.5945298,18.366629 C16.5945298,18.366629 16.569401,18.3441001 16.569401,18.3190681 C16.9991042,18.1538566 17.1624417,17.7258086 17.5946578,17.608158 L17.5946578,17.4905074 L17.7127634,17.608158 C17.569529,17.3728568 17.9992322,17.1801101 18.1173377,16.9448088 C18.285701,16.9448088 18.285701,16.824655 18.285701,16.7770941 C18.3560618,16.7770941 18.3560618,16.824655 18.4038066,16.7770941 C18.4038066,16.5868506 18.524425,16.4692 18.6425306,16.3490462 C18.6425306,16.4692 18.6902754,16.4692 18.6902754,16.4692 C18.7606361,16.4191359 18.5947858,16.3490462 18.6425306,16.3014853 C18.763149,16.1112418 18.8812546,15.9935912 18.9993601,15.8258765 C18.9993601,15.9435271 18.9993601,15.9435271 18.9516153,15.9435271 L18.9993601,15.991088 C18.9993601,15.7557867 19.0697209,15.5655432 19.1174657,15.3978285 C19.2380842,15.4679182 19.2380842,15.3502676 19.285829,15.3502676 C19.3561897,15.232617 19.1903394,15.3502676 19.2380842,15.232617 C19.9768722,14.4741461 20.3085729,13.2650984 20.4040625,11.9559224 L20.403337,11.9739265 C20.0155383,12.136757 19.6087634,12.2716649 19.1425946,12.3138807 C19.1425946,12.2187589 19.0923369,12.171198 18.9742313,12.171198 C18.9742313,12.243791 19.0697209,12.2913518 19.0219761,12.3864736 C18.8333547,12.4052631 18.6412035,12.4721068 18.4484664,12.5373057 C18.2363779,13.4749679 17.9313335,13.9906592 17.5343486,14.7570082 C17.4840909,14.8296011 17.416243,14.9247229 17.2478798,14.877162 C17.3659853,15.0198446 17.2478798,15.1875593 17.2478798,15.30521 L17.1297742,15.30521 C17.1297742,15.5430144 16.8910502,15.5430144 16.8910502,15.7783156 C16.5819654,15.9435271 16.4638598,16.2539244 16.177391,16.371575 L16.177391,16.4892256 C16.1296462,16.4892256 16.0844143,16.4892256 16.0592855,16.5142577 L16.0592855,16.5593154 L15.9864118,16.5593154 C15.938667,16.6093795 15.916051,16.6544371 15.8683062,16.6794692 L15.8683062,16.7520621 L15.8431774,16.7270301 C15.8205614,16.7270301 15.7728166,16.7270301 15.7250718,16.6794692 C15.6069663,16.7295333 15.7728166,16.799623 15.7250718,16.8471839 C15.4863478,16.7971198 15.5567086,16.9648345 15.438603,16.9648345 C15.438603,16.8947448 15.4863478,16.8471839 15.438603,16.8471839 C15.438603,16.9648345 15.3682423,17.0123954 15.199879,16.9648345 C15.1295182,17.0599562 15.2953686,16.9648345 15.2476238,17.0123954 C15.1973661,17.0624595 15.1521342,17.1325492 15.0792606,17.1801101 C15.0566446,17.1801101 15.0566446,17.1801101 15.0088998,17.2051421 C14.7701758,17.3928824 14.483707,17.4880042 14.2474958,17.6782477 C14.199751,17.6782477 14.199751,17.6306869 14.199751,17.6306869 C14.1268774,17.8209304 13.8203055,17.8684913 13.6519423,17.8684913 C13.2925998,18.1538566 12.6995591,18.2464751 12.2221111,18.4141898 C12.1743663,18.4141898 12.1743663,18.3641257 12.1743663,18.3641257 C12.1341601,18.404177 12.0730133,18.4230901 12.0049792,18.4348645 L11.7942692,18.4627705 C11.7265144,18.4742667 11.665926,18.4926236 11.6265575,18.5318404 L11.3717912,18.5490024 C11.0503028,18.5739944 10.7937876,18.6044334 10.5083239,18.6044334 C10.5083239,18.4867828 10.5083239,18.4867828 10.6264295,18.4867828 L10.6264295,18.4392219 C10.6264295,18.391661 10.5083239,18.4392219 10.5083239,18.391661 C10.4605791,18.4617507 10.3902184,18.4617507 10.3424736,18.5093116 C10.3902184,18.6269622 10.4605791,18.5093116 10.5083239,18.5093116 C10.5083239,18.5593757 10.4128343,18.5593757 10.4605791,18.6770263 C10.2695999,18.6294654 10.0811336,18.5819045 9.91277034,18.6294654 L9.91277034,18.5118148 C9.79466477,18.5118148 9.86502554,18.6294654 9.74691997,18.6294654 C9.62630152,18.6294654 9.67404633,18.5118148 9.62630152,18.5118148 C9.03326082,18.6294654 8.38996242,18.2740104 7.84215363,18.1563598 C7.9125144,18.0387092 7.74666403,18.1563598 7.79440883,18.0387092 C7.67630327,17.9686195 7.79440883,18.1338309 7.67630327,18.0862701 C7.62855847,17.9686195 7.50794002,17.9686195 7.38983445,17.9686195 C7.38983445,17.8484656 7.38983445,17.8009048 7.43757925,17.8009048 C7.38732157,17.730815 7.269216,17.8009048 7.269216,17.8484656 C7.19885524,17.8484656 7.14859755,17.8009048 7.03049199,17.8009048 C7.03049199,17.730815 6.98274719,17.730815 7.03049199,17.6832541 C6.75910048,17.693267 6.50278628,17.5580939 6.36457764,17.3252959 C6.36457764,17.3252959 6.36457764,17.3728568 6.31683284,17.3728568 C6.31683284,17.3002639 6.26908803,17.252703 6.26908803,17.1350524 L6.14846958,17.1350524 C6.07810882,17.252703 6.24395919,17.1350524 6.19621439,17.252703 C6.07810882,17.1826133 5.95749037,17.1325492 5.90974557,17.0148986 L6.03036402,17.0148986 C6.03036402,16.9448088 5.98261922,16.8722159 6.00523518,16.8021262 L6.001,16.79 L6.19244506,16.9214978 C6.33096781,17.0194356 6.46823412,17.1192509 6.61303908,17.2121824 L6.8369999,17.3453216 C6.8369999,17.3953856 6.74151029,17.3953856 6.78925509,17.5130362 C6.85961585,17.5130362 6.90736066,17.4429465 6.90736066,17.3953856 C7.26670312,17.4404433 7.38480868,17.7508407 7.74163826,17.7984016 C7.79189595,17.8935233 7.6235327,17.7984016 7.6235327,17.8459624 C7.74163826,17.8935233 7.86225671,17.7984016 7.98036227,17.8459624 C7.98036227,17.963613 7.98036227,17.963613 7.93261747,17.963613 C7.93261747,18.0111739 7.98036227,17.963613 7.98036227,17.963613 C8.02810708,17.963613 7.98036227,17.8459624 8.02810708,17.8459624 C8.2165734,17.9160522 8.33467897,17.963613 8.50304222,17.963613 C8.50304222,18.0111739 8.45529742,18.0111739 8.45529742,18.0111739 C8.45529742,18.0349544 8.46723362,18.0349544 8.47916982,18.0290093 L8.50304222,18.0111739 C8.55078702,18.0111739 8.50304222,17.9410842 8.50304222,17.8935233 C8.64376374,17.963613 8.81212699,18.0136771 8.93023256,18.1313277 C8.97797736,18.1313277 8.93023256,18.061238 8.93023256,18.0136771 C9.06090254,18.0862701 9.20916272,18.1288245 9.35993578,18.1313277 C9.35993578,18.2014175 9.35993578,18.2489783 9.31219098,18.2489783 C9.31219098,18.2489783 9.35993578,18.2489783 9.35993578,18.2965392 C9.35993578,18.2464751 9.35993578,18.1763854 9.47804135,18.1288245 C9.61876287,18.1763854 9.73938132,18.1763854 9.90523169,18.1763854 L9.90523169,18.294036 C10.1439557,18.1989143 10.3826797,18.2464751 10.7395093,18.2464751 L10.9175903,18.2514669 C11.3324715,18.2382224 11.7386949,18.0709379 12.048722,18.1738822 C12.1190828,18.1263213 12.2397012,18.0086707 12.287446,18.1263213 C12.4080645,18.0061675 12.7146364,18.0061675 12.8829996,17.8885169 C12.9759764,17.8184272 12.8829996,18.0086707 12.9156671,17.9861419 C12.9608991,17.8184272 13.2724967,17.7007766 13.3906023,17.8184272 C13.4383471,17.8184272 13.3906023,17.7483375 13.3906023,17.7007766 C13.8655374,17.6281837 14.1494934,17.2501998 14.5817095,17.2026389 C14.699815,17.0349242 14.8907942,16.8697127 15.1295182,16.9172736 L15.1295182,16.8697127 C15.7703038,16.4666968 16.3206254,15.8509085 16.7955606,15.2576491 C16.9136661,15.2576491 16.9840269,15.2576491 17.0317717,15.30521 C17.0795165,15.232617 17.0317717,14.9948126 17.0317717,14.877162 C17.5795805,14.1662519 17.8660493,13.6681143 18.1022604,12.6017492 L18.0921251,12.6443467 C17.9161465,12.6848721 17.7411962,12.6983801 17.569529,12.6468069 C17.5217841,12.6468069 17.569529,12.7168966 17.5217841,12.7644575 C15.7125074,13.2901304 13.8554859,13.738204 12.0462092,14.2839026 C11.9281036,14.3064314 11.9758484,14.1887808 11.9281036,14.1887808 C11.8803588,14.1887808 11.9281036,14.2839026 11.8803588,14.3314634 C11.4757844,14.4015532 11.1666996,14.5442358 10.8576149,14.4966749 C10.8576149,14.4040564 11.07121,14.4966749 11.0234652,14.3564955 C11.1440837,14.3564955 11.1440837,14.4040564 11.1918285,14.4040564 C11.2621892,14.4040564 11.1918285,14.2363417 11.309934,14.2839026 C11.309934,14.2388449 11.2621892,14.1412199 11.2621892,14.0235693 C11.33255,14.1437231 11.3802948,14.093659 11.3802948,13.9760084 C11.4984004,13.9760084 11.59389,13.9760084 11.59389,14.0235693 C11.6416348,14.0235693 11.59389,13.9534796 11.6416348,13.9059187 C11.7585406,13.8805521 11.8743209,13.8529432 11.9894122,13.8235991 C11.9903257,13.8118234 11.9948703,13.8004348 12.0009772,13.7882681 L12.0964668,13.7882681 C12.2160514,13.7641022 12.3347831,13.7307952 12.4534079,13.6963527 L12.4532964,13.6205534 C12.4843305,13.6205534 12.5249199,13.6406479 12.5495308,13.6677754 C12.9902899,13.538129 13.4337799,13.3935879 13.9032307,13.2650984 C14.2123155,13.2650984 14.4736554,13.1449445 14.7375083,13.0047651 C14.9033587,13.0973837 15.0943379,12.8871145 15.3556778,12.8871145 C15.4285515,13.0047651 15.307933,12.9572042 15.2601882,13.0047651 C15.3782938,13.052326 15.4260386,12.8620824 15.569273,12.7444318 C15.6873786,12.696871 15.7828682,12.8145216 15.830613,12.696871 C15.830613,12.7444318 15.7602522,12.8395536 15.8783578,12.8395536 C15.9261026,12.8395536 15.8783578,12.7444318 15.9261026,12.696871 C16.5895041,12.5316595 17.1624417,12.2713262 17.9967193,12.2237653 C18.2103145,12.0109929 18.6877625,12.0109929 18.8787417,11.8432782 C19.1174657,11.9384 19.4717824,11.6305059 19.9014856,11.6305059 L19.9014856,11.582945 C20.0698489,11.5103521 20.0221041,11.6780668 20.0698489,11.6780668 C20.1175937,11.6780668 20.0698489,11.582945 20.1175937,11.5353841 L20.1114169,11.5460543 C20.0934647,11.5259106 20.0789069,11.499955 20.0723618,11.4627912 C20.07974,11.4907205 20.09925,11.5145496 20.122559,11.5366863 C20.2869446,11.5789252 20.4266785,11.41918 20.4266785,11.5353841 C20.6880184,11.4177335 21.1403376,11.2750508 21.4016776,11.3226117 C21.4720383,11.2024579 21.306188,11.3226117 21.3539328,11.2024579 C21.4268064,11.2024579 21.567528,11.2725476 21.567528,11.154897 C21.5926568,11.129865 21.6152728,11.154897 21.6404016,11.154897 C21.6404016,11.1323682 21.6906593,11.1073361 21.8087648,11.0848073 C21.8791256,11.2024579 21.7132752,11.0848073 21.76102,11.2024579 C21.8816385,11.2024579 21.8816385,11.0622785 21.9293833,11.0622785 Z M4.03262096,18.2239463 C4.15072653,18.1538566 4.19847133,17.9886451 4.19847133,18.1062957 C4.08036576,18.1738822 4.08036576,18.294036 4.19847133,18.3415969 L4.05523692,18.3415969 L4.05523692,18.4592475 C4.05523692,18.5293372 4.22108729,18.4592475 4.17334249,18.5768981 C4.29144805,18.5768981 4.24370325,18.4342155 4.29144805,18.3165649 L4.28321038,18.3391105 C4.25266652,18.3484062 4.2307098,18.3695796 4.19344556,18.3695796 C4.26380632,18.3695796 4.26380632,18.2027394 4.33416708,18.3000629 C4.33416708,18.3000629 4.31155112,18.3000629 4.31155112,18.3348212 L4.31945178,18.3141363 C4.38893517,18.3147147 4.38893517,18.3197759 4.38893517,18.3640617 C4.43558045,18.3407188 4.44123032,18.2755266 4.48242726,18.3165649 C4.43216957,18.5068084 4.64827763,18.3866546 4.60053282,18.5543693 C4.86438568,18.624459 5.19608642,18.7446128 5.14834161,18.9824172 C5.1985993,19.052507 5.26896006,19.052507 5.31670486,19.1000678 L5.43481043,18.9824172 C5.62327675,19.0299781 5.74138232,19.2177185 5.90974557,19.2652793 C5.98010633,19.3854332 5.86200077,19.3854332 5.86200077,19.432994 C5.93236153,19.432994 5.98010633,19.3629043 5.98010633,19.3153434 C6.21631746,19.3153434 6.33693591,19.432994 6.45504147,19.5506446 C6.52791512,19.6457664 6.57565992,19.5982055 6.69376549,19.5982055 C6.64602068,19.7158561 6.81187105,19.5982055 6.81187105,19.7158561 L6.81187105,19.6682953 C7.21644543,19.8585388 7.64614866,20.0487823 8.1210838,20.0963432 C8.1210838,20.138397 8.13827193,20.1552186 8.13953842,20.1619472 L8.137,20.162 L8.16140774,20.1590015 C8.19431082,20.1500839 8.22768506,20.1352211 8.27252434,20.1263034 L8.34975627,20.118872 L8.34975627,20.3091156 L8.23165071,20.3091156 C8.23165071,20.3591797 8.32714031,20.3591797 8.27939551,20.4768303 C8.2384714,20.4982863 8.23262509,20.4797422 8.23554824,20.4515428 L8.24529208,20.3912616 C8.24724085,20.3728707 8.24529208,20.3591797 8.23165071,20.3591797 C8.23165071,20.4267662 8.1361611,20.4768303 8.18390591,20.5944809 C8.0884163,20.571952 8.01805554,20.5494232 7.94518189,20.5243912 C7.94518189,20.5243912 7.92256593,20.5243912 7.89743709,20.4768303 C7.77933153,20.4292694 7.66122596,20.4067406 7.51799155,20.3591797 C7.51799155,20.3091156 7.47024675,20.3091156 7.51799155,20.191465 L7.3496283,20.191465 C7.3496283,20.0713112 7.3018835,20.0237503 7.3018835,20.0237503 C7.3018835,20.0738144 7.2541387,20.1439041 7.2541387,20.191465 C7.06315949,20.191465 7.06315949,20.0963432 6.82443547,20.1439041 C6.82443547,20.0763176 6.77669067,20.0262535 6.77669067,19.9086029 C6.82443547,19.9086029 6.82443547,19.9561638 6.82443547,19.9561638 C6.94505392,19.8385132 6.75407471,19.7183593 6.70632991,19.6707985 C6.70632991,19.7909523 6.70632991,19.861042 6.65858511,19.9086029 C6.54047954,19.9786926 6.65858511,19.8134811 6.54047954,19.861042 C6.54047954,19.9811958 6.70632991,19.9811958 6.65858511,20.0988464 C6.41986109,19.9786926 6.22888188,19.9086029 5.99015787,19.861042 C5.99015787,19.7433914 5.99015787,19.6733017 5.94241307,19.6257408 C5.8243075,19.6758049 5.99015787,19.7458946 5.94241307,19.7934555 C5.79917866,19.6733017 5.75143386,19.5781799 5.51270984,19.6257408 C5.51270984,19.505587 5.51270984,19.4580261 5.63081541,19.4580261 C5.63081541,19.3879364 5.58307061,19.3879364 5.58307061,19.3403755 C5.46496504,19.505587 5.27398583,19.1501319 5.22624103,19.3879364 C4.86689857,19.2227249 4.55781379,18.9623916 4.27134497,18.7946769 L4.27134497,18.6269622 C4.22360017,18.6269622 4.22360017,18.6995551 4.22360017,18.747116 C4.10549461,18.6970519 4.10549461,18.5794013 3.93713136,18.5794013 C3.93713136,18.4617507 3.93713136,18.3415969 3.98487616,18.294036 C4.03262096,18.294036 4.03262096,18.3415969 4.03262096,18.3415969 C4.15072653,18.2715072 3.98487616,18.2715072 4.03262096,18.2239463 Z M10.9053597,13.9985372 C11.0008493,13.9985372 11.0259781,14.0711302 11.0485941,14.1211943 C11.0259781,14.0986654 10.9782333,14.1211943 11.0259781,14.1937872 C10.8123829,14.1937872 10.5987878,14.3114378 10.551043,14.0986654 C10.4555534,14.1211943 10.3600638,14.1937872 10.3600638,14.3364698 C10.4078086,14.313941 10.4304245,14.313941 10.4781693,14.288909 C10.551043,14.4065596 10.3826797,14.288909 10.4304245,14.4065596 C10.551043,14.4766493 10.4304245,14.3114378 10.551043,14.3589987 C10.5032982,14.4766493 10.7168933,14.3589987 10.6691485,14.4766493 C10.4304245,14.4766493 10.312319,14.6418608 10.0032342,14.5942999 C10.050979,14.5942999 10.050979,14.3815275 10.0032342,14.3815275 C9.88261573,14.4741461 9.88261573,14.6418608 9.83487092,14.6894217 C9.78712612,14.6894217 9.69163652,14.7144537 9.66902056,14.6894217 C9.69163652,14.6894217 9.69163652,14.7119505 9.66902056,14.7369826 C9.09608293,14.7845434 8.38493665,15.1399985 8.073339,15.0448767 C8.02559419,15.0448767 8.073339,15.1149664 8.02559419,15.1625273 C7.83461498,15.1625273 7.62101981,15.30521 7.40742464,15.2100882 C7.35967984,15.2100882 7.40742464,15.2826811 7.35967984,15.3277388 C5.90723269,15.685697 4.5728911,16.1588027 3.07269914,16.4191359 C3.07269914,16.371575 3.00233838,16.3240142 2.95459358,16.2764533 C2.85910397,16.3966071 3.07269914,16.3740782 3.07269914,16.4917288 C2.76864013,16.5367865 2.47211978,16.6269019 2.19318962,16.7520621 L1.71574159,16.9648345 C0.574892097,17.2251677 1.21819049,17.0123954 0.0748281117,17.2727286 C0.0748281117,17.1776069 -0.0935351397,17.0349242 0.0748281117,16.9172736 L0.215549635,16.8922416 C0.285910397,16.7971198 0.341193853,16.6944884 0.383912887,16.5843474 C0.527147295,16.5142577 0.479402492,16.6794692 0.645252859,16.6319083 C0.645252859,16.5843474 0.645252859,16.5843474 0.597508056,16.5843474 C2.5500192,16.01612 2.97720954,16.0611777 4.88197587,15.4929503 C5.00259432,15.4929503 5.05033912,15.4929503 5.05033912,15.5405112 C5.09808393,15.5405112 5.05033912,15.4704214 5.09808393,15.4228606 C5.16844469,15.4003317 5.21618949,15.4704214 5.21618949,15.5179823 C5.26393429,15.4929503 5.14582873,15.4228606 5.26393429,15.3752997 C5.92984865,15.2826811 6.55053108,15.0448767 7.12095583,14.8996908 C7.26419023,14.8996908 7.4300406,14.8996908 7.4777854,14.7820402 C7.59589097,14.877162 7.66876461,14.7820402 7.78687018,14.7344793 C7.78687018,14.8296011 7.69138057,14.7595114 7.73912538,14.877162 C7.80948614,14.7595114 8.00046535,14.7595114 8.00046535,14.6168287 C8.04569727,14.6168287 8.09595495,14.7119505 8.21406052,14.6643896 C8.26180532,14.6643896 8.21406052,14.5917967 8.26180532,14.546739 C8.57340298,14.546739 8.93023256,14.3089346 9.14382773,14.4040564 C9.19157253,14.3339666 9.23680445,14.2388449 9.4051677,14.2864058 C9.4051677,14.3564955 9.3574229,14.3564955 9.3574229,14.4040564 C9.40768058,14.4516172 9.47804135,14.4516172 9.52578615,14.4991781 C9.57353095,14.4991781 9.52578615,14.4040564 9.57353095,14.3564955 C9.52578615,14.3564955 9.52578615,14.3564955 9.52578615,14.4040564 C9.43029654,14.3089346 9.61876287,14.2613737 9.78712612,14.2613737 C9.68912363,14.3089346 9.78712612,14.3564955 9.90523169,14.3564955 C9.73938132,14.1887808 10.0484661,14.3564955 10.0007213,14.1412199 C10.3098061,14.1412199 10.5259141,14.0460981 10.7872541,13.9985372 C10.7872541,14.068627 10.7395093,14.068627 10.7395093,14.1161879 C10.7395093,14.1637487 10.8576149,14.1161879 10.9053597,14.1637487 C10.9757204,14.0460981 10.8098701,14.1637487 10.8576149,14.0460981 C10.9053597,14.0460981 10.9053597,14.0460981 10.9053597,13.9985372 Z M5.48477904,9.65514317 L5.65598784,10.2941031 L7.33959655,9.84298151 L7.47819415,10.3602348 L5.79458544,10.8113564 L5.99161143,11.5466674 L7.94398901,11.0235294 L8.08258661,11.5407827 L6.55618232,11.9497815 C7.04577882,12.4382073 7.73712747,12.8073514 8.62515717,13.0585725 L8.37762218,13.6358081 C7.41333071,13.2419653 6.66835824,12.7132632 6.14035125,12.0612031 L6.13020903,12.0639207 L6.73487503,14.3205649 L6.1973373,14.4645977 L5.59267131,12.2079535 C5.44767695,13.127307 5.04657843,13.9630978 4.38294584,14.7116136 L3.94415801,14.2911017 C4.56569393,13.6897456 4.97749388,13.0358842 5.16669802,12.3220927 L3.64029373,12.7310915 L3.50169614,12.2138382 L5.45407371,11.6907002 L5.25704771,10.9553892 L3.60893677,11.3969992 L3.47033917,10.8797459 L5.11845011,10.4381359 L4.94724132,9.79917597 L5.48477904,9.65514317 Z M9.5530327,10.1521363 L10.1074231,12.2211494 C10.2218741,12.0600375 10.3410321,11.8759236 10.4611849,11.6752376 L10.7485676,12.1798 C10.5004734,12.5723887 10.2225831,12.9349147 9.91254336,13.2788792 L9.58333054,12.861618 C9.65558733,12.766164 9.67541013,12.6575837 9.64551653,12.5460193 L9.17673053,10.7964861 L8.48198838,10.9826417 L8.34610838,10.4755307 L9.5530327,10.1521363 Z M11.392987,8.09378443 C11.5112026,8.53497105 11.606052,8.9498074 11.6761766,9.33322239 C12.2599205,10.4975623 12.9799276,11.3590657 13.8260558,11.9204504 L13.558867,12.4649058 C12.9086203,11.9651741 12.3295381,11.3050587 11.8179081,10.4909895 C11.8199951,10.5393471 11.8271532,10.5863459 11.8278814,10.6296324 C11.8827473,11.5443503 11.6446525,12.379946 11.1186681,13.1350607 L10.6404036,12.7903489 C11.0853478,12.1384768 11.297554,11.4293924 11.2770222,10.6630955 C11.2508862,10.0178746 11.1112677,9.21282926 10.8554492,8.23781722 Z M15.7271752,9.25870777 L15.8453908,9.69989439 C15.7553268,10.1751486 15.6303956,10.621699 15.4590962,11.0371921 C15.6814255,11.1569807 15.8885414,11.2808458 16.0804441,11.4087872 L15.8070919,11.8896717 C15.4174874,11.5918611 14.8993822,11.3013062 14.2564887,11.011577 L14.5153557,10.5780554 C14.6872404,10.6515734 14.8604839,10.7301626 15.0286563,10.8101105 C15.1210024,10.5462177 15.2089081,10.2454682 15.2910144,9.90279109 L13.9775968,10.2547203 L13.8457932,9.76282256 L15.7271752,9.25870777 Z M17.1610835,8.42337159 L17.3975147,9.30574483 C17.5253395,9.86393109 17.5333494,10.3400824 17.4201858,10.7291277 C17.3090116,11.0850288 17.0533952,11.4089754 16.6621201,11.6931788 L16.2649935,11.3267262 C16.6272007,11.0557466 16.8531186,10.7832393 16.9312461,10.5068507 C17.0052972,10.2152488 16.991683,9.8601735 16.9005459,9.43890723 L16.6641147,8.55653399 L17.1610835,8.42337159 Z M17.81949,10.0894849 C18.2187751,10.2814328 18.5774913,10.484251 18.8854964,10.7006573 L18.6070731,11.1829006 C18.3409957,10.9606951 17.9947752,10.7436581 17.5555519,10.5243653 Z M17.6681353,6.5428083 L17.8012977,7.03977713 L16.8377867,7.29794913 C16.8555486,7.44537543 16.870593,7.5826595 16.8805662,7.72130238 L17.8136506,7.47128318 L18.4781038,9.95105626 L17.9608505,10.0896539 L17.4268421,8.0967074 L16.2858422,8.40243739 L16.8334386,10.446095 L16.3161853,10.5846926 L15.6381442,8.05420837 L16.363313,7.85989998 C16.3533397,7.7212571 16.3369366,7.57890192 16.3205334,7.43654673 L15.3570224,7.69471873 L15.22386,7.19774989 L17.6681353,6.5428083 Z M9.50092488,7.39493334 L9.55091499,7.40760002 C9.55091499,7.4551609 9.57353095,7.50272179 9.57353095,7.54777947 C9.52578615,7.57030831 9.47804135,7.57030831 9.43029654,7.59534035 L9.47313337,7.58028201 C9.49940086,7.60034676 9.53520947,7.60034676 9.57101807,7.60034676 L9.57101807,7.81311913 C9.68912363,7.88320886 9.57101807,7.71799737 9.68912363,7.76555825 C9.75948439,7.88320886 9.59363403,7.76555825 9.64137883,7.88320886 C7.61850693,8.40387538 5.59312214,8.9245419 3.64312389,9.4952725 C3.38178392,9.4952725 3.23854951,9.58789107 3.02495434,9.63545195 C2.97720954,9.63545195 2.97720954,9.56536223 2.97720954,9.51780134 L2.81135917,9.51780134 C2.74099841,9.61292311 2.90684877,9.56536223 2.85910397,9.66048399 C2.6932536,9.61292311 2.5500192,9.80316665 2.43191363,9.66048399 C2.33642403,9.87325637 1.97708156,9.92081725 1.76348639,9.7781346 C1.76348639,9.87325637 1.858976,9.82569549 1.8112312,9.92081725 C1.64538083,9.99090698 1.74087044,9.7781346 1.59763603,9.82569549 L1.602,9.853 L1.50214642,9.85323073 C1.51910839,9.80066344 1.53748386,9.77344109 1.54561147,9.75361102 L1.54989122,9.73558013 C1.54989122,9.80817305 1.66799679,9.78314101 1.71574159,9.78314101 C1.71574159,9.68801924 1.62025199,9.73558013 1.66799679,9.64045836 C2.19318962,9.59289747 2.59525111,9.28500333 3.12044394,9.33256422 C3.16818875,9.33256422 3.12044394,9.26247449 3.16818875,9.21491361 C3.52250544,9.11728864 3.95220866,9.02216687 4.30903824,8.90451626 C4.83423107,8.83442654 5.28655025,8.644183 5.76148539,8.52653239 C6.90233489,8.28622477 8.04569727,7.95580179 9.07095408,7.64790764 C9.21167561,7.64790764 9.33229405,7.60034676 9.45039962,7.55278587 L9.418,7.565 L9.4060984,7.54954098 L9.38255174,7.52525063 C9.43280943,7.4551609 9.43280943,7.36003913 9.55091499,7.40760002 Z M8.65829956,8.82110651 C9.04436072,8.98398653 9.38478189,9.15909575 9.67820427,9.34136306 L9.41227671,9.80938773 C9.1570697,9.62775104 8.81157742,9.45400062 8.38087097,9.28677767 Z M10.1167793,0.0386297732 C10.3622974,-0.00160692 10.5895739,-0.0277514995 10.701816,0.0506822389 C10.8902824,0.00312135501 10.8902824,0.0506822389 11.0561327,0.00312135501 C11.1038775,0.218396935 11.3677304,0.00312135501 11.6516863,0.0506822389 L11.6516863,0.218396935 C11.7723048,0.218396935 11.8200496,0.148307211 11.8200496,0.100746327 C11.940668,0.100746327 12.1065184,0.100746327 12.0587736,0.218396935 C12.1065184,0.218396935 12.1065184,0.148307211 12.1065184,0.100746327 C12.5814535,0.148307211 12.9860279,0.265957819 13.4132182,0.383608426 C13.483579,0.503762238 13.3654734,0.456201354 13.3654734,0.503762238 C13.2699838,0.573851962 13.3654734,0.40864047 13.3177286,0.456201354 C13.3177286,0.573851962 13.1996231,0.503762238 13.1996231,0.621412846 C13.3202415,0.551323122 13.4358342,0.551323122 13.5539398,0.503762238 C13.5539398,0.456201354 13.5539398,0.456201354 13.506195,0.456201354 C13.8152797,0.338550747 14.0037461,0.621412846 14.2902149,0.621412846 L14.2902149,0.739063453 C14.4083204,0.809153177 14.3605756,0.69150257 14.4083204,0.69150257 C15.0516188,0.999396713 15.6446595,1.35485174 16.3130868,1.71280997 C16.3130868,1.7828997 16.3608316,1.7828997 16.3130868,1.83046058 C16.5015531,1.7828997 16.5015531,1.99817527 16.6699164,1.95061439 C16.6699164,2.11582588 16.6699164,2.37615914 16.6221716,2.54387384 C16.6241691,2.55315541 16.6241691,2.56459141 16.6241691,2.57628732 C16.5993747,2.57628732 16.5731382,2.563309 16.5537627,2.54339088 L16.5266819,2.54387384 C16.5345022,2.53977376 16.5397607,2.53379331 16.5432965,2.52665845 C16.5298357,2.51026013 16.5241691,2.49355706 16.5241691,2.47628732 C16.5350024,2.47628732 16.5446621,2.47684324 16.5532754,2.47790155 C16.5506476,2.45056592 16.5490623,2.42372003 16.5744267,2.42372003 C16.5241691,2.3536303 16.4060635,2.42372003 16.4060635,2.47128091 C15.6220436,1.99817527 14.9083844,1.44997351 13.9534884,1.16711141 L13.9534884,1.0494608 C13.8831276,1.0494608 13.8831276,1.14458257 13.8353828,1.09702168 C13.8353828,1.0494608 13.8353828,1.0494608 13.787638,1.0494608 C13.787638,1.00189992 13.8353828,1.00189992 13.8353828,1.00189992 C13.8353828,0.954339033 13.787638,1.00189992 13.787638,1.00189992 C13.7398932,1.00189992 13.787638,1.16711141 13.7398932,1.11955052 C13.7398932,0.954339033 13.7398932,0.88424931 13.8579988,0.836688426 C13.810254,0.766598702 13.810254,0.766598702 13.810254,0.719037818 L13.6670196,0.719037818 C13.7625092,0.83919163 13.5966588,0.909281354 13.7147644,0.956842238 C13.6670196,0.956842238 13.6670196,1.00440312 13.6670196,1.00440312 C13.4760403,0.956842238 13.2373163,0.83919163 13.0011052,0.83919163 C13.0011052,0.769101906 13.0011052,0.721541023 12.9533604,0.721541023 C12.8804868,0.603890415 13.04885,0.721541023 13.0011052,0.603890415 C12.8804868,0.531297487 13.0011052,0.699012183 12.8804868,0.651451299 C12.8804868,0.699012183 12.9759764,0.699012183 12.9282316,0.81666279 C12.8779739,0.769101906 12.7598683,0.769101906 12.6417627,0.769101906 L12.6417627,0.603890415 C12.5688891,0.841694835 12.2120595,0.721541023 12.093954,0.603890415 C11.9733355,0.721541023 11.7346115,0.556329531 11.4984004,0.603890415 C11.4984004,0.533800691 11.4029108,0.533800691 11.4506556,0.486239807 C11.33255,0.416150084 11.33255,0.486239807 11.33255,0.533800691 C10.3801668,0.488743012 9.42778366,0.653954503 8.7141245,0.606393619 C8.59601894,0.676483343 8.76186931,0.676483343 8.7141245,0.724044227 C7.57076213,0.864223674 6.80935817,1.33732931 5.9047198,1.64772666 C5.54789022,1.98065284 4.95233663,2.1233355 4.71361262,2.47879052 C4.54524937,2.47879052 4.59550706,2.64400201 4.4271438,2.59644113 C4.379399,2.66653085 4.30903824,2.71659494 4.26129344,2.83424555 C4.02508231,2.88180643 3.90446386,3.14213969 3.66573985,3.30735118 C3.49988948,3.427505 3.30891027,3.61524533 3.26116547,3.78045682 L3.1430599,3.78045682 C3.07018626,4.08835096 2.78623032,4.04079008 2.78623032,4.32615538 L2.66812476,4.32615538 L2.66812476,4.49387008 C2.19318962,4.91941483 1.88410484,5.51267428 1.59763603,6.10593372 L1.609,6.081 L1.64989122,6.08090168 C1.63155789,6.08090168 1.61658567,6.08392668 1.60435835,6.08892913 L1.59763603,6.10593372 C1.59233105,6.10593372 1.58761551,6.10534655 1.58342393,6.10430269 C1.54989122,6.12857812 1.54989122,6.17396834 1.54989122,6.18090168 C1.54989122,6.12894089 1.54989122,6.10397934 1.56392024,6.09198801 C1.54989122,6.0788556 1.54989122,6.05837284 1.54989122,6.05837284 C1.54989122,6.03334079 1.57250718,6.01081195 1.59763603,6.01081195 L1.54989122,5.96325107 C1.50214642,5.96325107 1.54989122,6.05837284 1.50214642,6.01081195 C1.57250718,5.89316135 1.45440162,5.94072223 1.45440162,5.89316135 C1.42625731,5.9121857 1.42826762,5.93521518 1.44081194,5.95904569 L1.49042633,6.02973618 L1.50214642,6.06087604 C1.47953046,6.06087604 1.47953046,6.06087604 1.45440162,6.08340488 C1.47701758,6.10843693 1.50214642,6.10843693 1.52476238,6.08340488 C1.51722373,6.09925851 1.51750294,6.12039668 1.5194574,6.13977334 L1.519,6.141 L1.50739778,6.12846256 C1.50739778,6.1481994 1.46784699,6.16497572 1.44477571,6.19433427 L1.42927278,6.22846256 C1.42927278,6.21530467 1.46833528,6.20280467 1.49763215,6.18734414 L1.498,6.186 L1.48514233,6.21670964 C1.47653405,6.26049747 1.55565694,6.21670964 1.55858742,6.26049747 L1.54989122,6.29868046 C1.45440162,6.36877019 1.50214642,6.25111958 1.40665682,6.25111958 C1.40414393,6.29367405 1.38906663,6.33622853 1.35891201,6.36877019 C1.37147644,6.41382787 1.39660528,6.45387914 1.42927278,6.48642079 C1.42927278,6.67416112 1.26342241,6.67416112 1.31116721,6.95952643 C1.27024309,6.98956488 1.26439679,6.96351112 1.26731994,6.92392692 L1.27706378,6.83932883 C1.27901255,6.8135232 1.27706378,6.79431494 1.26342241,6.79431494 C1.21567761,6.84187582 1.26342241,6.95952643 1.26342241,6.95952643 C0.979466477,7.78808709 0.692997662,8.40387538 0.667868818,9.440202 L0.12006003,9.440202 C0.238165594,9.03718609 0.190420792,8.91953549 0.238165594,8.49148753 C0.311039241,8.06594278 0.476889608,7.78057748 0.476889608,7.35503273 L0.594995172,7.35503273 C0.547250369,7.16478919 0.642739975,7.11973151 0.594995172,6.88192709 C0.715613621,6.88192709 0.665355934,6.97704886 0.833719185,6.92948798 C0.833719185,6.9995777 0.73822958,6.9995777 0.785974383,7.04713858 C0.785974383,7.09469947 0.906592831,7.04713858 0.954337634,7.04713858 C0.906592831,6.90946234 0.906592831,6.75927007 0.954337634,6.62159383 C0.83623207,6.62159383 0.883976872,6.74174764 0.83623207,6.78930853 C0.785974383,6.78930853 0.785974383,6.69418676 0.667868818,6.74174764 C0.667868818,6.69168356 0.763358423,6.69168356 0.715613621,6.57403295 L0.883976872,6.57403295 C0.954337634,6.45387914 0.83623207,6.45387914 0.83623207,6.40631825 C0.931721675,6.40631825 0.883976872,6.21607472 0.883976872,6.16851383 L1.00208244,6.16851383 C0.931721675,6.28866764 0.931721675,6.33622853 0.883976872,6.45387914 C1.07495608,6.57152974 1.00459532,6.21607472 1.12270089,6.21607472 C1.10008493,6.16851383 1.10008493,6.12345615 1.07495608,6.09842411 C1.12270089,6.09842411 1.12270089,6.14598499 1.12270089,6.14598499 C1.17044569,6.07339206 1.17044569,5.90818057 1.12270089,5.90818057 C1.24080645,5.71543383 1.28855125,5.48013262 1.40665682,5.2423282 L1.64538083,5.2423282 C1.64538083,5.31241792 1.67050967,5.33494676 1.67050967,5.35997881 L1.71825448,5.35997881 C1.69563852,5.28988908 1.67050967,5.2423282 1.67050967,5.2423282 C1.67050967,5.12467759 1.71825448,5.07711671 1.71825448,4.9569629 C1.60014891,4.90940201 1.71825448,5.12467759 1.60014891,5.07711671 C1.64789371,5.00452378 1.64789371,4.88687317 1.64789371,4.83931229 L1.76599928,4.7917514 C1.83887292,4.67159759 1.83887292,4.74168732 1.88661773,4.62403671 C1.93436253,4.55394698 1.93436253,4.43379317 1.93436253,4.38623229 C1.98462022,4.3386714 2.05498098,4.3386714 2.10272578,4.3386714 L2.10272578,4.21851759 C2.10272578,4.14842787 2.22083135,4.14842787 2.26857615,4.10086698 C2.29119211,4.07833814 2.31632095,4.07833814 2.31632095,4.0533061 L2.34144979,4.0533061 C2.36406575,4.0533061 2.36406575,3.96068754 2.34144979,3.93565549 C2.4369394,3.93565549 2.3891946,4.00574522 2.3891946,4.0533061 C2.50730016,4.12339582 2.3891946,3.95818433 2.50730016,4.00574522 C2.50730016,3.93565549 2.3891946,3.93565549 2.3891946,3.88809461 C3.45968333,2.70407892 4.58042975,1.68277152 6.19872727,1.01942235 L6.34196168,0.901771741 C6.43745128,0.831682017 6.34196168,1.06948644 6.38970648,1.06948644 C6.43745128,1.06948644 6.38970648,0.949332624 6.38970648,0.901771741 C6.43745128,0.901771741 6.62843049,0.736560249 6.6761753,0.901771741 C6.7239201,0.901771741 6.6761753,0.831682017 6.6761753,0.784121133 C6.91489931,0.666470525 7.15111044,0.666470525 7.38983445,0.546316713 C7.50794002,0.47622699 7.38983445,0.641438481 7.50794002,0.593877597 C7.74666403,0.47622699 8.17385437,0.311015498 8.41257838,0.358576382 C8.41257838,0.288486658 8.50806799,0.288486658 8.46032318,0.240925775 C8.86489757,0.285983454 9.10110869,0.120771963 9.57855672,0.168332846 C9.64891748,0.23842257 9.53081192,0.23842257 9.53081192,0.285983454 C9.53081192,0.311015498 9.53081192,0.311015498 9.55594076,0.311015498 L9.5810696,0.263454614 L9.5810696,0.288486658 C9.62630152,0.288486658 9.67404633,0.265957819 9.69917517,0.265957819 C9.5810696,0.145804007 9.74691997,0.21589373 9.74691997,0.0982431228 C9.78684691,0.0929585802 9.82761148,0.0868087323 9.86876556,0.0802124968 Z M14.5151728,8.44750605 C14.7991811,8.67577745 15.0243255,8.88721018 15.1929596,9.07030322 L14.8897138,9.43962328 C14.7092146,9.23253348 14.4813526,9.01095853 14.2024154,8.78132834 Z M14.3592226,7.27724319 C14.8114033,7.58546253 15.247376,7.9143304 15.6722117,8.262488 L15.4228563,8.73150738 C14.9803561,8.31742534 14.6225371,8.01653307 14.3531115,7.82240065 C14.2144233,8.35960042 14.0145178,8.89146255 13.7584659,9.41662824 L13.34006,9.07218295 C13.5978348,8.57373162 13.8061597,8.01243753 13.9636759,7.38322959 Z M3.4797864,6.69668996 L3.74112638,6.72422521 C3.74112638,6.8894367 3.62302081,6.84187582 3.74112638,6.95952643 C3.50240236,7.19733085 3.50240236,7.67043648 3.26619124,7.9082409 C3.31393604,8.0759556 3.21844643,8.14604532 3.21844643,8.19360621 C3.10034087,8.19360621 3.17070163,8.07345239 3.10034087,8.14604532 L3.02746722,8.14604532 C2.97972242,8.191103 3.02746722,8.38134654 3.02746722,8.42890742 C2.97972242,8.42890742 2.97972242,8.4764683 2.97972242,8.4764683 L2.81135917,8.4764683 C2.92946473,7.88320886 3.16567586,7.4551609 3.33403911,6.98205527 L3.4797864,6.98205527 C3.4797864,6.86190146 3.4320416,6.81684378 3.4320416,6.74425085 C3.4797864,6.74425085 3.4797864,6.69668996 3.4797864,6.69668996 Z M21.6280496,4.36776112 L21.6906593,4.37621947 C21.7384041,4.44630919 21.6202985,4.49387008 21.7384041,4.49387008 C21.7861489,4.51890212 21.6680433,4.37621947 21.7861489,4.37621947 L21.868,4.458 C21.8776365,4.45001765 21.8811731,4.44816342 21.8857336,4.44723631 L21.9042545,4.44630919 C21.9042545,4.49387008 21.9545121,4.54143096 22.0726177,4.54143096 C22.0726177,4.47134124 22.0248729,4.42378035 21.9771281,4.42378035 C22.0273858,4.42378035 22.0977465,4.42378035 22.1681073,4.39874831 C22.1681073,4.65908157 22.3113417,4.80176422 22.2158521,4.96697571 C22.2158521,5.0145366 22.2862129,4.96697571 22.3339577,5.0145366 L21.915,4.938 L21.9315968,4.92597107 C21.9628704,4.8879341 21.9786741,4.81524339 22.0295797,4.78768859 L22.0751306,4.77673218 C21.9906977,4.77673218 21.9653678,4.75342734 21.9413924,4.70681768 C21.9149288,4.71020929 21.8955764,4.70800028 21.8808456,4.70140683 L21.8816385,4.72917129 L21.8565097,4.72917129 L21.8553845,4.6806044 C21.8338937,4.65096284 21.8338937,4.60259259 21.8338937,4.5614566 C21.8277306,4.58114802 21.8214489,4.59888546 21.8087648,4.61152069 C21.8087648,4.61152069 21.7861489,4.63655273 21.7384041,4.61152069 L21.753,4.616 L21.7358912,4.63404953 C21.5767419,4.66575678 21.4287609,4.70747685 21.2837582,4.74585932 L21.067464,4.79926102 C21.044848,4.82429306 21.044848,4.82429306 21.0197192,4.82429306 C20.1628256,5.06209748 19.3310609,5.32243074 18.4264225,5.48764223 L18.4264225,5.27486986 C18.3560618,5.27486986 18.3560618,5.32243074 18.3083169,5.32243074 C18.3560618,5.37249483 18.4038066,5.44258455 18.3560618,5.582764 C16.3331899,6.10593372 14.2625731,6.6040714 12.310062,7.24238853 C12.0261061,7.1722988 11.8125109,7.48019295 11.5964029,7.28994941 C11.548658,7.3375103 11.548658,7.38507118 11.5009132,7.43263206 C11.3802948,7.36254234 11.2596763,7.40760002 11.1189548,7.4551609 C11.1189548,7.38507118 11.1893156,7.38507118 11.1893156,7.3375103 C11.1893156,7.3375103 11.1440837,7.43263206 10.9757204,7.38507118 C10.9757204,7.45766411 11.07121,7.43263206 11.1189548,7.45766411 C11.07121,7.50522499 10.9983364,7.52775383 10.9505916,7.55278587 L10.9505916,7.41260643 L10.7847412,7.41260643 C10.832486,7.50522499 10.832486,7.45766411 10.7847412,7.55278587 C10.6892516,7.43513527 10.6415068,7.60034676 10.4279116,7.55278587 C10.3801668,7.55278587 10.4279116,7.64790764 10.3801668,7.69546853 L10.332422,7.64790764 L10.332422,7.74302941 C10.2997545,7.72717578 10.2779762,7.69296532 10.2582454,7.65439743 L10.235,7.606 L10.2725231,7.6128044 L10.332422,7.60284996 C10.355038,7.5077282 10.4982724,7.43513527 10.3801668,7.38757438 L10.3979995,7.39890867 C10.3768669,7.43039455 10.345716,7.45766411 10.2871901,7.45766411 L10.3017508,7.45550735 C10.2860866,7.47661247 10.2580463,7.4789971 10.2168293,7.48507118 C10.2489722,7.38507118 10.2846865,7.38507118 10.3168293,7.38507118 L10.324,7.385 L10.3167575,7.39223602 C10.3163112,7.41388578 10.3137814,7.4298958 10.3091095,7.44190882 C10.3481841,7.40658622 10.3826797,7.40084137 10.3826797,7.36254234 C10.4052957,7.3400135 10.4052957,7.3400135 10.4304245,7.3400135 C10.4224806,7.35425754 10.4147877,7.37125339 10.4049643,7.38783767 L10.436,7.387 L10.4623944,7.31247825 C10.4623944,7.31247825 10.4710151,7.33747825 10.4835151,7.34997825 L10.486,7.35 L10.4779116,7.36247825 C10.4718898,7.37166943 10.465868,7.3808606 10.4598034,7.38880946 L10.5435043,7.38757438 L10.5435043,7.31748466 C10.551152,7.31540838 10.5587999,7.31333189 10.566448,7.31125518 L10.528,7.319 L10.5395767,7.30931974 C10.5491284,7.29807636 10.5565358,7.2867007 10.5655026,7.27545731 L10.6007853,7.24238853 L10.6003671,7.302044 C13.0343363,6.64099598 15.4905924,5.95831831 17.9715904,5.32493394 C18.0922089,5.3024051 18.0218481,5.4676166 18.1399537,5.42005571 C18.2103145,5.32493394 18.0444641,5.37249483 18.0922089,5.27737306 L18.1173377,5.27737306 C18.1424666,5.32493394 18.1650825,5.32493394 18.2128273,5.32493394 C18.263085,5.2999019 18.263085,5.27737306 18.2379562,5.25234102 L18.2218551,5.27673414 C18.1974708,5.28695126 18.1768093,5.30227693 18.1449795,5.30227693 L18.1449795,5.20227693 C18.1675954,5.20227693 18.2379562,5.20227693 18.263085,5.26779417 L18.2519489,5.25043461 C18.4132529,5.22838695 18.5761965,5.20344308 18.7154042,5.15721925 C18.6902754,5.17974809 18.6676594,5.22730897 18.6425306,5.27486986 C18.8083809,5.34495958 18.7606361,5.17974809 18.9038705,5.22730897 L18.8498486,5.13138275 C18.8115295,5.14514134 18.774327,5.1673679 18.7405331,5.19937815 C18.763149,5.11282363 18.8335098,5.07387409 18.9063834,5.11715135 L19.0213246,5.06135579 C19.1428738,5.03039022 19.2640506,4.99868297 19.4064474,4.96697571 L19.8813826,4.82429306 C20.4995521,4.75170013 20.9267424,4.5614566 21.4293193,4.44380599 C21.4034007,4.4818547 21.4122871,4.5058875 21.4334663,4.52391349 L21.4293193,4.49387008 C21.522296,4.49387008 21.522296,4.32865859 21.6906593,4.37621947 Z M5.05718015,4.84643482 C5.05718015,4.84643482 5.1226974,4.74342277 5.1226974,4.84643482 L5.1226974,4.90065169 L5.119,4.9 L5.119,4.903 L5.05033912,4.96947892 L5.00259432,4.96947892 C4.97746548,5.03956864 5.00259432,5.08963273 5.07295508,5.15972245 C4.52514629,5.5852672 4.31155112,6.25111958 3.76374234,6.72422521 C3.76374234,6.60657461 3.76374234,6.60657461 3.81148714,6.60657461 C3.81148714,6.55901372 3.69338157,6.60657461 3.64563677,6.60657461 C3.69338157,6.488924 3.81148714,6.488924 3.81148714,6.3212093 C3.85923194,6.27114521 3.81148714,6.43885991 3.81148714,6.43885991 C3.85923194,6.39380223 3.93210559,6.3212093 4.05021115,6.3212093 L4.05021115,6.25111958 C4.05021115,6.20355869 4.00246635,6.25111958 3.93210559,6.25111958 C3.88436079,6.13096577 3.97985039,6.13096577 3.97985039,6.01331516 C4.14821364,6.01331516 4.09795595,5.77551074 4.26631921,5.84560046 L4.26631921,5.68038897 C4.38442477,5.61029925 4.26631921,5.79803958 4.38442477,5.72794986 C4.21606152,5.53770632 4.55027514,5.4676166 4.50253033,5.3024051 C4.6206359,5.34996599 4.73874146,4.94695008 4.78648627,5.1847545 C4.83423107,5.1847545 4.78648627,5.06460069 4.78648627,5.0170398 C4.88197587,4.96947892 4.90710472,4.87435715 5.02521028,4.85182831 C5.00259432,4.87435715 5.00259432,4.92191803 4.97746548,4.94695008 C4.99952983,4.92374965 5.02219213,4.9118665 5.04253555,4.90025938 L5.0226974,4.90065169 C5.05718015,4.90065169 5.05718015,4.84643482 5.05718015,4.84643482 Z M5.7438952,4.01575803 C5.7438952,4.20600157 5.62327675,4.27609129 5.6961504,4.44380599 C5.52778715,4.48886367 5.45742639,4.65657837 5.24383122,4.72666809 C5.29911467,4.62653991 5.30916621,4.5038829 5.26644718,4.39624511 C5.31419198,4.39624511 5.38706563,4.39624511 5.38706563,4.34868422 L5.50517119,4.34868422 C5.55291599,4.34868422 5.50517119,4.22853041 5.50517119,4.22853041 C5.62327675,4.15844069 5.50517119,4.34868422 5.62327675,4.27609129 C5.69363752,4.15844069 5.50517119,4.27609129 5.57553195,4.15844069 C5.69363752,4.15844069 5.62076387,4.04079008 5.7438952,4.01575803 Z M16.9538723,2.25600533 C17.1448515,2.13835472 17.3835755,2.32609505 17.3835755,2.49380975 C17.2629571,2.39868798 17.2629571,2.56389947 17.2152123,2.44624887 C17.0971067,2.51884179 17.2629571,2.56640268 17.2152123,2.68405329 C17.2629571,2.68405329 17.2152123,2.56640268 17.2152123,2.56640268 C17.8559978,2.56640268 17.9288714,3.15966212 18.4038066,3.39746654 L18.4038066,3.61023892 L18.5721698,3.61023892 C18.5721698,3.73039273 18.6902754,3.80048245 18.6902754,3.84804334 L18.5721698,3.84804334 C18.6224275,3.96819715 18.6927883,3.80048245 18.7405331,3.84804334 C18.7405331,3.92063627 18.8108938,3.92063627 18.8586386,3.96819715 C18.8586386,4.01575803 18.8108938,4.01575803 18.8108938,4.01575803 C18.8837675,4.13340864 18.8837675,3.96819715 18.9315123,4.01575803 C18.9993601,4.13340864 19.0496178,4.25356245 19.1677234,4.30112334 L19.1677234,4.41877395 C19.1677234,4.46633483 19.2380842,4.41877395 19.285829,4.41877395 L18.6902754,4.58398544 C18.5696569,4.46633483 18.6400177,4.46633483 18.5219121,4.34618102 C18.6425306,4.34618102 18.6902754,4.27609129 18.6902754,4.22853041 C18.5721698,4.27609129 18.5721698,4.27609129 18.4540642,4.27609129 L18.4540642,4.15844069 L18.5721698,4.15844069 C18.6425306,3.99322919 18.524425,3.92313947 18.524425,3.87557859 C18.4540642,3.87557859 18.4540642,3.99322919 18.4063194,3.87557859 C18.3585746,3.87557859 18.4063194,3.92313947 18.4063194,3.92313947 C18.285701,3.87557859 18.285701,3.92313947 18.2379562,3.92313947 C18.3811906,3.80548886 17.9766162,3.85304975 18.024361,3.66280621 C18.024361,3.66280621 18.0017451,3.66280621 17.9766162,3.68783826 C17.9766162,3.7128703 17.9766162,3.7128703 17.9288714,3.68783826 C17.9288714,3.56768444 17.8585107,3.52012356 17.8107658,3.52012356 C17.7892268,3.47935709 17.8078427,3.47353331 17.8361511,3.4764452 L17.8966655,3.4861515 C17.9151275,3.48809276 17.9288714,3.4861515 17.9288714,3.47256268 C17.5016811,3.42249859 17.3835755,3.11710765 17.1448515,2.94939295 C17.0744907,2.83174235 17.2403411,2.94939295 17.1925963,2.83174235 C17.0744907,2.76165262 17.1925963,2.92686411 17.0744907,2.87930323 C16.8357667,2.8067103 17.0267459,2.50131936 17.0744907,2.33360467 C17.0744907,2.28604378 16.9538723,2.33360467 16.9538723,2.25600533 Z M9.54588922,2.45626168 C9.66650767,2.4087008 10.0233373,2.33861108 10.1414428,2.45626168 C10.1414428,2.4087008 10.3098061,2.4087008 10.3801668,2.4087008 L10.3801668,2.52635141 L10.4279116,2.52635141 C10.4756564,2.52635141 10.4279116,2.47879052 10.4279116,2.4087008 L10.7168933,2.4087008 C10.7168933,2.45375848 10.6691485,2.52635141 10.5962749,2.52635141 C10.5962749,2.57140909 10.7168933,2.57140909 10.7168933,2.64400201 L10.2563238,2.64465226 C9.90393598,2.6670002 9.56285119,2.81703602 9.31219098,2.71409174 C9.07346697,2.90433527 8.52817106,2.85677439 8.28944705,3.02198588 C8.24170225,3.02198588 8.24170225,3.02198588 8.24170225,2.974425 C8.19395744,3.09457881 8.00297823,3.09457881 7.88235978,3.21222942 C7.05059506,3.37744091 6.43242552,3.92313947 5.83184616,4.22853041 C5.83184616,4.1108798 5.94995172,4.06331892 5.94995172,3.94316511 C5.94995172,3.89560422 5.90220692,3.94316511 5.83184616,3.94316511 C6.26154938,3.58771008 6.78422932,3.27981594 7.37978291,3.04201152 C7.37978291,2.99695384 7.49788848,2.99695384 7.42752772,2.92436091 C7.8321021,2.90183207 7.95020766,2.66402765 8.37991089,2.66402765 L8.37991089,2.78668467 C8.42765569,2.78668467 8.37991089,2.66903406 8.37991089,2.62147317 C8.49801645,2.73912378 8.54576125,2.57140909 8.49801645,2.73912378 C8.61612201,2.80921351 8.49801645,2.62147317 8.61612201,2.6915629 C8.68648278,2.57391229 8.49801645,2.6915629 8.56837721,2.57391229 C8.80710123,2.52635141 9.1639308,2.4087008 9.28203637,2.57391229 C9.40265482,2.57391229 9.40265482,2.45626168 9.45039962,2.45626168 C9.56850518,2.45626168 9.37752597,2.57391229 9.49814442,2.57391229 C9.59363403,2.57391229 9.54588922,2.52885461 9.54588922,2.45626168 Z M14.1218516,3.22975185 C14.2399572,3.22975185 14.287702,3.34990566 14.4083204,3.27731273 L14.4083204,3.39496334 C14.6470445,3.34740246 14.5766837,3.51261395 14.76515,3.51261395 C14.76515,3.56017483 14.6470445,3.68032864 14.76515,3.75041837 C14.76515,3.70285748 14.8128948,3.63276776 14.8128948,3.58520687 C14.9310004,3.51511715 14.8128948,3.70536069 14.9310004,3.63276776 C14.8832556,3.75292157 14.8832556,3.68283185 14.9335133,3.80048245 C14.8128948,3.80048245 14.76515,3.80048245 14.76515,3.84804334 C14.6470445,3.80048245 14.5967868,3.73039273 14.4786812,3.68283185 C14.4786812,3.63527096 14.526426,3.63527096 14.5967868,3.56518124 C14.5239131,3.51511715 14.4761683,3.51511715 14.4058076,3.39746654 C14.382354,3.43751781 14.3879382,3.46421866 14.4031085,3.48637666 L14.4579266,3.54802965 C14.4728178,3.56990951 14.4778436,3.59605409 14.4535524,3.63527096 C14.3354468,3.58771008 14.2173412,3.58771008 14.2173412,3.47005947 C14.1670835,3.47005947 14.1670835,3.59021328 14.048978,3.51762036 C14.048978,3.47256268 14.0012332,3.47256268 14.048978,3.39996975 L14.1695964,3.39496334 C14.2399572,3.27731273 14.1218516,3.34740246 14.1218516,3.22975185 Z M12.4055516,2.64149881 C12.5261701,2.59393793 12.4532964,2.71409174 12.5965308,2.68905969 C12.548786,2.80921351 12.5965308,2.80921351 12.5965308,2.85677439 C12.832742,2.92686411 13.0965948,2.71409174 13.04885,2.87930323 C13.1192108,2.80921351 13.3353188,2.80921351 13.3353188,2.92686411 C13.3353188,2.92686411 13.3353188,2.87930323 13.3830636,2.87930323 C13.4559373,2.99945704 13.6921484,3.11961085 13.8127668,3.04701793 L13.8127668,3.16466853 L13.787638,3.16466853 L13.788,3.187 L13.6896355,3.18719737 C13.6896355,3.26719737 13.7315665,3.28319737 13.748339,3.28639737 C13.7896355,3.28719737 13.7896355,3.23982895 13.7896355,3.18719737 L13.789,3.195 L13.7936061,3.20628431 C13.7965902,3.20925686 13.8010662,3.21074314 13.8077803,3.21148628 L13.8353828,3.21222942 C13.787638,3.2572871 13.787638,3.2572871 13.787638,3.32988002 C13.6192748,3.32988002 13.4282955,3.27981594 13.4282955,3.16216533 C13.5464011,3.0920756 13.4282955,3.27981594 13.5464011,3.20972621 C13.5464011,3.15966212 13.4282955,3.0895724 13.4282955,3.04201152 C13.3805507,3.04201152 13.4282955,3.16216533 13.4282955,3.20972621 C13.1920844,3.16216533 12.9508475,3.16216533 12.832742,2.92436091 C12.6920204,3.04201152 12.5739149,2.87680003 12.4055516,2.92436091 Z M11.1164419,2.47628732 L11.1164419,2.59393793 C11.2345475,2.59393793 11.2822923,2.54637704 11.3526531,2.47628732 C11.7119955,2.59393793 11.7572275,2.59393793 12.1869307,2.59393793 L12.1869307,2.83174235 C12.3075491,2.83174235 12.1869307,2.66653085 12.3552939,2.71409174 C12.3552939,2.76165262 12.2371884,2.76165262 12.3075491,2.87930323 C12.0688251,2.92686411 12.0688251,2.76165262 11.832614,2.83174235 C11.832614,2.71409174 11.9532324,2.78418146 12.0009772,2.78418146 L12.0009772,2.73662058 C11.8803588,2.68655649 11.7145084,2.73662058 11.7622532,2.85427119 C11.6918925,2.73662058 11.3802948,2.85427119 11.33255,2.73662058 C11.2873181,2.85427119 11.1666996,2.73662058 11.0485941,2.73662058 C10.9304885,2.5238482 11.0008493,2.59393793 10.9304885,2.47628732 L11.1164419,2.47628732 Z" transform="translate(0 1.5)" fill="#E71818" fill-rule="evenodd"/>
</svg>
