<svg viewBox="0 0 1024 1024" version="1.1" xmlns="http://www.w3.org/2000/svg"><path fill="#3A84FF" d="M471.2575552 224C431.921872 230.21891648 394.1812768 244.06930976 360.1593664 264.77184224L351.6478112 269.70030656C345.2825696 273.8389168 339.1508768 278.3261808 333.2807712 283.14157344 301.0922432 308.39211712 275.18069728 340.7479584 257.57272896 377.6784832 249.64276576 394.8212128 243.34332512 412.6722432 238.75771296 430.9955072 236.06985344 440.4043936 232.48604096 444.4367744 227.11032192 444.4367744 201.39393152 450.9173952 176.67810912 460.8654624 153.64216352 474.0075616 137.69044352 484.9553632 122.70336192 497.2465728 108.84450592 510.747024 78.97012352 545.6172448 63.0178736 590.2900896 64.04684832 636.1988448 63.26034848 688.6959168 85.1360576 738.9847648 124.07570944 774.1958496 147.6821856 797.1856096 176.61816352 813.9647808 208.29530592 823.0324512 243.68545536 832.4413376 233.38199392 831.9966848 510.6794944 831.9966848 744.0752896 831.9966848 767.818048 831.9966848 783.4972288 829.3050432 800.7243296 826.490832 817.6654976 822.1424608 834.1185824 816.3118176L842.6301376 812.27944C857.3789664 805.2597536 871.3439424 796.6993184 884.2919584 786.7410304 931.2083552 750.573792 959.0797664 694.9877472 960 635.7508032 959.1896896 613.9481664 955.2675616 592.3733024 948.352608 571.6807648 947.0748608 569.4523424 946.1671104 567.0313248 945.6647488 564.5120896 941.023664 553.0179136 935.166656 542.0531872 928.193664 531.805008L919.6821088 521.0519936C910.3857504 508.09688 899.0370816 496.7465472 886.0838656 487.4488256 874.8330368 477.4121568 862.150624 469.1069792 848.4538336 462.8065056L840.3902528 459.2221664C825.7469568 453.330224 810.7920096 448.2447968 795.5925952 443.9887328 784.5978336 442.5067872 773.5321856 441.60944 762.4423296 441.3004768 739.8218368 439.4986016 717.0616512 441.7749536 695.2458432 448.0211104L676.8788032 454.2937024C661.0819456 460.081232 646.0407584 467.75336 632.0811456 477.143856 599.0491008 502.522192 567.3498528 529.5901376 537.110112 558.2394976 481.2623648 609.9137024 425.115968 661.2892096 368.6709184 712.3660224L335.9686304 742.8328928 321.1854016 757.1702464 291.17097216 757.1702464C274.59583904 757.1702464 253.98891648 757.1702464 246.37331456 753.5859072 199.91940704 746.6667232 161.67004352 713.4774816 148.26644448 668.4578848 144.69752224 649.0561824 144.69752224 629.1660576 148.26644448 609.7643552 155.75485472 585.2464768 170.23389056 563.4468832 189.92826624 547.0384416 213.70242016 529.301952 242.27399456 519.1520928 271.90797952 517.9156992 309.49885984 520.3991712 344.9488672 536.2983648 371.8067552 562.71992L391.5177248 579.2974816 411.2286944 595.8750464C415.15416 599.8565312 419.6912672 603.1842304 424.6679904 605.7319744 427.8038272 605.7319744 434.9714528 599.907424 460.5061184 576.6092288 468.5085472 569.6822304 475.856496 562.033248 482.4569696 553.7590752 478.0798656 547.4943648 472.9661632 541.7782176 467.2257664 536.733472L446.6188448 519.7078656C443.483008 516.1235296 411.2286944 491.4812064 394.6535616 479.3840672 377.3777728 467.5524064 358.528592 458.2018432 338.6564896 451.6054496 332.7852672 449.9002304 327.1994336 447.3333888 322.0813568 443.9887328 325.5133504 428.4851392 330.7767072 413.4447776 337.7605376 399.1845088 349.3588352 378.0764864 364.5139872 359.1297696 382.5581952 343.179232 403.893136 325.0535136 428.9866144 311.89280928 456.026352 304.6476L473.49744 302.85543104C486.1333312 300.01777696 499.0810112 298.8131648 512.023424 299.27109344 527.0512128 298.2102368 542.1530592 299.41856128 556.8210816 302.85543104 587.7295712 309.32293248 616.6207584 323.1558464 641.0406784 343.179232 657.2234272 357.3973312 671.123824 374.0198048 682.2545216 392.4638752 684.9623072 397.1240064 687.9544832 401.6129248 691.2140544 405.9051424 695.5300608 406.4052224 699.8893664 406.4052224 704.205376 405.9051424 717.2607968 403.9087168 730.4259552 402.7117088 743.6273152 402.3208032 774.9856736 402.3208032 775.8816288 402.3208032 769.1619776 388.8795392 766.938192 384.6807648 764.9927648 380.3403328 763.3382848 375.8863136 761.7297888 371.3385984 759.6266144 366.9813856 757.0666112 362.893088 755.2310848 360.17168 753.5846304 357.3273824 752.1388704 354.380288 741.7049376 338.417552 729.8607872 323.4227616 716.74872 309.57606464 693.9142912 286.47519296 667.2351296 267.52414688 637.9048416 253.57078656L617.7458976 244.16190016C607.0731264 240.0411712 596.1505824 236.59931808 585.0436064 233.85692896 547.7389568 224.40684416 509.0027168 221.97597888 470.8095776 226.68825344L471.2575552 224ZM777.6735328 520.603952C805.1206752 525.4414432 830.0925344 539.5099328 848.4538336 560.4797088 867.7062464 580.1705664 878.0655264 606.882 877.1243328 634.4066752 878.7411872 646.3569024 877.3555232 658.5217376 873.092544 669.8020128 868.921296 684.4129312 861.750464 697.993728 852.0376448 709.6777696 834.6053056 730.0138976 811.2771232 744.419984 785.289136 750.8976544 773.122576 752.8774752 760.8613376 754.2234176 748.555056 754.9300352L444.37896 754.9300352C457.725488 740.3488672 471.937088 726.5840384 486.936736 713.7101504L541.5898784 661.2892096C560.8528704 643.36752 635.2169824 575.7131456 645.9684192 566.7523008L657.1678336 556.447328C668.7733472 546.62816 681.3872128 538.0674976 694.7978656 530.9089216 702.164704 527.322752 709.8042432 524.326416 717.644672 521.9480768L732.8758752 517.4676544C747.74656 515.5450112 762.8028512 515.5450112 777.6735328 517.4676544L777.6735328 520.603952Z"/></svg>