<svg viewBox="0 0 1024 1024" version="1.1" xmlns="http://www.w3.org/2000/svg"><g fill="none"><path fill="#FBBC05" d="M278.26024544 512.0091328C278.30139199999996 486.61473920000003 282.47515776 461.396304 290.6178704 437.34275840000004L152.1858704 333.81713215999997C96.002043168 445.9293536 96.002043168 577.9769087999999 152.1858704 690.0891327999999L290.5417456 586.3771328C282.47207968 562.412496 278.34962272 537.2959488 278.33549536 512.0091328"/><path fill="#EA4335" d="M521.3754944 274.34513216C576.4222752000001 274.20911904 629.8576192 292.91696992 672.7986208 327.35875712L792.489872 210.35550719999998C696.1396768 127.547966368 567.2367552000001 93.297399872 442.490848 117.35788704 317.74493792 141.418374208 210.82704192 221.15310752 152.1858704 333.85475712L290.69224543999997 437.37950720000003C324.60748608 339.1321216 417.47933632 273.5209488 521.4122464 274.38275712"/><path fill="#34A853" d="M521.3754944 749.6731328C417.42198208 750.5442463999999 324.52330272 684.935168 290.58024544 586.6755072L152.14824544 690.1635071999999C222.91843488 828.6848192 365.82692864 915.3836703999999 521.3746208 914.1635071999999 620.0720384 915.252672 715.6314272 879.5127424 789.3906208 813.9235071999999L657.9402464 714.4316319999999C616.5453824 738.5877439999999 569.251312 750.7635071999999 521.3378720000001 749.5996319999999"/><path fill="#4285F4" d="M914.009872 512.0091328C913.64704 487.3555776 910.5034016 462.82169600000003 904.6386208 438.8731328L521.3378720000001 438.8731328 521.3378720000001 594.2915072 741.977872 594.2915072C732.1893248 644.4179872 701.6820448 688.0774015999999 657.977872 714.5051328L789.3906208 813.9987583999999C872.4744576 735.9714975999999 917.9006208 625.9227999999999 914.0466208 512.0091328"/></g></svg>