<svg viewBox="0 0 1024 1024" version="1.1" xmlns="http://www.w3.org/2000/svg"><path fill="#EA3636" fill-rule="evenodd" d="M422.1708096 743.6745888C353.99295648 802.5174304 297.13660704 831.9592032 251.60176288 831.9999552 206.0669184 832.0406144 171.32927103999998 804.3986112 147.38881984 749.0738944L422.1708096 743.630976 422.1708096 743.6745888ZM601.8219456 743.6745888L876.603936 749.0738944C852.6397888 804.357904 817.9021408 831.9999104 772.390992 831.9999104 726.8798464 831.9999104 670.0234976 802.5436 601.8219456 743.630976L601.8219456 743.6745888ZM70.111106016 512.7255936C175.56520799999998 567.968896 243.248376 604.412032 273.16060992 622.0549983999999 303.07284352 639.697968 353.98999424 671.3552864000001 425.9120608 717.0269632 311.51213408 724.0050656 236.64268384 724.0981056 201.30371072 717.3060864 160.87865088 709.5516704 129.41126528 692.629776 102.46714976 666.1391584 66.6009062848 630.9346336 55.815558368 579.7967808000001 70.111106016 512.7255936ZM953.8816512 512.7255936C968.1890464 579.7793343999999 957.4036992 630.9230048 921.5256064 666.1566015999999 894.5903776 692.6472192 863.122992 709.5691168 822.6890464 717.3235328 787.3559968 724.1271808 712.5013568 724.0341408 598.1251264 717.0444096 669.970176 671.3669184 720.8754784 639.7095968 750.8410336 622.0724448000001 780.8065856 604.4352928000001 848.4867904 567.9863424 953.8816512 512.7255936L953.8816512 512.7255936ZM199.47307488 285.21331136000003C254.61727616 356.94819616 292.35858848 408.10349632 312.69701152 438.67921152 333.03543488 469.25492672 378.94944 551.6488608 450.4390272 685.8610176 309.43267392 623.6163488 211.41664064 561.8049088 156.39092704 500.426688 116.85452544 456.3425312 116.85452544 384.01450783999996 161.72287616 322.28447616 168.23970272 313.32924576 180.82014016 300.98091328 199.46418848 285.23947904L199.47307488 285.21331136000003ZM824.475248 285.21331136000003C843.1429952 300.97219071999996 855.7234304 313.3205232 862.21656 322.25830848 907.129344 383.98833984 907.129344 456.28147296 867.6018272 500.426688 812.5761152 561.833984 714.5274976 623.6541472 573.4559776 685.887184 644.9396384 551.6750304 690.8536448 469.26655712 711.1979904 438.6617664 731.5423392 408.05697536 769.301424 356.90749056000004 824.475248 285.21331136000003ZM447.5153408 160C475.0696704 239.9690448 490.63896 296.40444160000004 494.223216 329.30619104 497.8074688 362.20794016 494.8186144 472.74688512 485.2566528 660.9230272 365.42998688 491.6052064 305.51665376 368.72955776000003 305.51665376 292.29608448 305.51665376 215.8626112 352.84954976 171.763916352 447.5153408 160ZM576.557392 160C671.1935648 171.792991776 718.511648 215.89168672 718.511648 292.29608448 718.511648 368.70048224000004 658.6131264 491.576128 538.81608 660.9230272 529.2363456 472.77596064 526.2474912 362.24283072000003 529.84952 329.32363616 533.4515488 296.40444160000004 549.0208384 239.9690448 576.557392 160.01744525408L576.557392 160Z"/></svg>