<svg viewBox="0 0 1024 1024" version="1.1" xmlns="http://www.w3.org/2000/svg"><g fill="none"><path fill="#313238" d="M572.3118816 359.9134288C503.906272 362.83355872000004 436.20705568 375.14741728 371.06469344000004 396.51842304 300.92067199999997 423.95075136 255.19483104 492.9557792 256.64997184000003 569.1820832000001 252.55592352 613.7358816000001 267.94647327999996 657.8674944 298.75099584 689.9046112 329.55551872 721.941728 372.67093536 738.657104 416.69370912 735.629712 484.1788576 739.6271296 549.564224 711.0812896 593.083072 658.6219296 609.2684383999999 685.7818976 630.1468992 709.7622304 654.717856 729.41368 662.9137888 733.9963168 673.038208 733.0380096 680.2563264 726.9963872 701.7090848 708.0036384 740.5288992 674.5071328 761.9816576 656.2046368 770.8346464 648.9527584 769.1325792 637.9021376000001 761.9816576 627.5417728 736.4108768 601.158512 721.891024 565.7694752 721.4597792 528.778352L721.4597792 364.74801504000004C721.4597792 295.68236224 726.2270592 230.06985024 674.4676192 181.3793344 628.3862687999999 144.68332521600001 570.9240896 125.8301500544 512.380096 128.19888545088 410.22436096 128.19888545088 297.17185248 166.18438079999999 274.01609312 291.53802624 273.03319776 296.65038208 274.2034512 301.94662912 277.2435872 306.1447824 280.28372351999997 310.34293568 284.91664672 313.0603504 290.02093248 313.63926176L392.17666784 325.03547712C401.8519536 323.18511264 409.2652976 315.24909856 410.564216 305.35153472 419.56522528 265.40746720000004 456.099856 238.20779616 496.3752576 241.46606528 519.7379776 240.39033664 542.1787360000001 250.80478272 556.6478304 269.43773504 568.2911168 293.26993568 572.6768928 320.07709312 569.246672 346.44551776000003L569.246672 359.9134288 572.3118816 359.9134288ZM551.8805504 581.9588C537.6974624 610.3457504 509.6612096 628.9057504 478.328496 630.6502591999999 436.78425632 630.6502591999999 413.28864192 599.9156992000001 413.28864192 553.6424767999999 413.28864192 463.16584 495.3538304 445.90013376 572.6517375999999 445.90013376L572.6517375999999 468.6916192C576.6361984 507.6137792 569.6706272 546.8845248 552.5611904 581.9588L551.8805504 581.9588Z"/><path fill="#F90" d="M782.3288896 779.890112C694.2289856 818.9889056 599.8948768 839.3281056 504.5713376 839.776896 376.75551584 840.017936 251.0433392 804.8384832 139.587103936 737.6392512 130.6929883936 732.1279616 123.509603456 741.6807936 131.377654784 749.0285088 231.6753808 844.5410944 361.29527168000004 896.8794688 495.335824 895.988816 601.5312672 896.1939264 705.4177344 862.7069824 793.958864 799.7301472 807.299568 789.442944 796.3533248 773.276768 782.3288896 779.890112L782.3288896 779.890112Z"/><path fill="#F90" d="M861.252752 745.6593024C821.3830336 729.5239136 776.4822528 733.7747424 740.114064 757.127696 733.7711136 762.042976 735.0397024 768.5960864 742.0165184 767.2852864 766.117136 764.336656 819.3927328 757.7826464 829.5405888 770.2348128 839.688448 782.6869792 818.7588704 834.1298848 809.8796064 856.7387456 807.0250592 863.9477056 812.7332832 866.5693088 819.3927328 860.998176 859.0338016 827.5776704 869.8146528 755.8168928 861.2536192 745.6593024L861.252752 745.6593024Z"/></g></svg>