<svg viewBox="0 0 1024 1024" version="1.1" xmlns="http://www.w3.org/2000/svg" style="fill: #979BA5;"><path fill-rule="evenodd" d="M389.9418912 552.7326496C434.8349248 552.797888 471.2024992 589.1895264 471.2350784 634.0796288L471.2350784 878.6530208C471.1699072 923.5526976 434.7853664 959.9348352 389.8827264 960L145.29318528 960C100.41365216 959.9022752 64.06507776 923.529648 64 878.6530208L64 634.0796288C64.0650784 589.2030016 100.41365248 552.8303744 145.29318528 552.7326496ZM878.706816 552.7326496C923.5863488 552.8303744 959.9349216 589.2030016 960 634.0796288L960 878.6530208C959.9348288 923.5526944 923.5502912 959.934832 878.6476512 960L634.0581088 960C589.1554688 959.934832 552.770928 923.5526944 552.70576 878.6530208L552.70576 634.0796288C552.7709312 589.1799552 589.1554688 552.7978176 634.0581088 552.7326496ZM697.6870816 54.44897632C727.6837312 24.517007904 776.2540128 24.517007904 806.2506624 54.44897632L969.5428032 217.661216C999.4639264 247.65075104 999.488896 296.18850432 969.5986464 326.2088032L946.9812352 348.7670432 806.3065088 489.4768768C791.921968 503.8870144 772.3987104 511.9895168 752.0362912 512 731.6738688 512.010464 712.1422848 503.928048 697.7429248 489.5327136L675.1255136 466.9186336 557.0682016 348.8228832 534.4507872 326.2088032C519.9868064 311.79388768 511.9012288 292.18623744 512 271.76749696 511.9708672 251.46085568 520.0526368 231.98304896 534.4507872 217.661216L675.0696672 77.06305664ZM389.9418912 64C434.831056 64.0976144 471.1966208 100.46077888 471.2942432 145.34697984L471.2942432 389.9203712C471.229072 434.8200448 434.8445312 471.2021824 389.9418912 471.2673504L145.35235136 471.2673504C100.44971104 471.2021824 64.0651712 434.8200448 64 389.9203712L64 145.34697984C64.06507776 100.47035072 100.41365216 64.0977232 145.29318528 64Z"></path></svg>